<?xml version="1.0" standalone="no"?>
<!DOCTYPE svg PUBLIC "-//W3C//DTD SVG 20010904//EN"
 "http://www.w3.org/TR/2001/REC-SVG-20010904/DTD/svg10.dtd">
<svg version="1.0" xmlns="http://www.w3.org/2000/svg"
 width="2560.000000pt" height="2560.000000pt" viewBox="0 0 2560.000000 2560.000000"
 preserveAspectRatio="xMidYMid meet">

<g transform="translate(0.000000,2560.000000) scale(0.100000,-0.100000)"
fill="#000000" stroke="none">
<path d="M9655 21714 c-197 -42 -378 -183 -478 -372 -93 -177 -145 -402 -132
-574 8 -103 0 -115 -86 -143 -30 -9 -128 -46 -219 -82 -267 -106 -281 -111
-380 -142 -161 -50 -236 -71 -258 -71 -35 0 -44 30 -30 109 13 79 -1 214 -47
443 -59 294 -199 440 -445 470 -210 24 -399 -71 -488 -248 -39 -77 -72 -197
-72 -260 1 -123 94 -291 232 -416 51 -46 123 -115 162 -153 39 -39 88 -79 109
-88 70 -33 42 -61 -128 -127 -343 -133 -432 -166 -545 -205 -69 -24 -181 -60
-250 -80 -69 -20 -177 -54 -241 -75 -155 -53 -160 -53 -197 13 -41 71 -141
178 -215 231 -34 24 -98 58 -142 76 -73 30 -91 34 -207 38 -143 5 -182 -4
-303 -67 -49 -25 -98 -64 -166 -131 -82 -80 -103 -108 -138 -181 -60 -125 -83
-222 -84 -354 -2 -224 61 -345 336 -638 l130 -139 -7 -71 c-3 -40 -8 -97 -11
-127 -6 -49 -5 -53 8 -37 8 10 18 35 22 55 3 20 12 46 19 57 7 11 16 33 20 48
3 15 11 25 16 22 6 -3 10 -1 10 4 0 13 36 51 49 51 5 0 14 7 21 15 10 12 10
15 -1 15 -10 0 -10 3 -1 12 8 8 15 8 27 -2 12 -10 15 -10 15 4 0 12 8 16 28
14 15 -1 33 1 40 6 8 4 12 1 12 -9 0 -13 8 -10 34 13 19 17 43 33 53 35 261
76 255 76 378 -35 39 -35 88 -77 110 -93 63 -47 195 -176 211 -207 24 -46 62
-246 69 -363 7 -120 25 -227 49 -292 17 -48 13 -55 -49 -95 -22 -14 -123 -104
-225 -201 -102 -96 -212 -197 -245 -223 -33 -27 -121 -101 -195 -164 -74 -64
-167 -141 -205 -172 -82 -64 -120 -106 -170 -183 -19 -30 -40 -55 -47 -55 -6
0 -48 18 -92 40 -114 57 -292 100 -411 100 -190 0 -358 -68 -522 -209 -177
-153 -311 -429 -330 -677 -18 -244 93 -511 298 -716 62 -62 95 -85 170 -122
110 -53 212 -82 324 -91 115 -10 118 -15 247 -365 33 -91 75 -195 94 -232 18
-36 56 -122 83 -190 74 -184 147 -358 208 -498 30 -69 88 -207 128 -307 41
-100 88 -210 105 -244 32 -62 70 -192 70 -237 0 -13 11 -37 24 -53 28 -33 81
-164 90 -224 5 -28 14 -44 28 -50 21 -10 95 -175 132 -295 14 -44 130 -351
221 -585 26 -66 84 -223 130 -350 82 -224 135 -363 174 -448 60 -132 141 -330
155 -381 10 -33 29 -82 43 -110 86 -170 85 -166 137 -321 20 -59 38 -97 43
-91 4 4 -77 230 -97 271 -5 11 -27 70 -49 130 -35 99 -146 377 -304 766 -31
75 -74 187 -95 250 -22 63 -69 193 -105 289 -36 96 -86 233 -112 305 -135 377
-193 521 -282 705 -41 85 -95 211 -118 280 -23 69 -70 186 -103 261 -33 74
-70 164 -82 200 -30 87 -128 337 -270 684 -65 160 -121 301 -125 315 -4 14
-31 86 -60 160 -88 226 -139 391 -128 409 11 17 170 61 191 53 16 -6 41 -53
77 -147 89 -233 180 -448 183 -433 8 42 -168 516 -209 563 -16 18 -29 41 -29
52 0 29 389 463 416 463 6 0 31 -9 55 -19 24 -11 82 -27 129 -36 47 -9 132
-30 190 -46 282 -81 732 -180 747 -165 6 5 -78 30 -231 67 -141 34 -206 51
-456 120 -102 28 -225 62 -274 75 -48 13 -94 29 -102 35 -17 14 -17 39 -3 130
9 52 16 69 28 69 9 0 97 -21 196 -45 99 -25 284 -70 410 -100 127 -30 307 -77
400 -104 175 -51 305 -84 311 -78 11 10 -524 178 -756 236 -151 38 -330 86
-397 105 -67 20 -131 36 -142 36 -11 0 -23 6 -28 13 -4 6 -6 95 -5 197 2 102
-2 245 -8 318 l-11 133 31 44 c17 25 63 71 103 102 70 56 500 470 662 638 44
45 90 100 102 121 14 26 -60 -42 -215 -196 -131 -129 -312 -300 -402 -380 -91
-80 -201 -179 -245 -220 -116 -110 -139 -124 -168 -108 -33 18 -107 105 -107
126 0 30 41 86 112 152 39 36 122 113 184 172 63 59 156 142 207 184 50 42
177 157 282 256 294 279 303 283 387 156 l25 -38 28 30 c48 50 92 49 313 -10
46 -12 85 -20 88 -17 2 2 -29 20 -70 40 -85 42 -177 128 -238 221 -100 155
-91 329 27 506 58 88 123 134 226 161 173 44 326 5 461 -120 124 -114 162
-243 123 -423 -29 -138 -82 -218 -193 -291 -37 -25 -97 -55 -135 -67 -37 -13
-66 -24 -65 -25 9 -7 161 19 268 46 82 21 135 30 153 25 26 -6 27 -9 27 -72 0
-65 12 -79 23 -27 3 16 25 50 49 77 38 42 48 48 70 43 32 -8 139 -92 297 -230
63 -56 128 -112 145 -126 48 -39 -74 89 -223 235 -125 122 -133 133 -127 160
18 80 18 106 -3 191 -24 95 -19 143 15 143 11 0 14 5 9 18 -3 9 -14 46 -23 80
-17 63 -17 64 5 81 20 17 249 76 468 121 101 21 488 131 482 137 -4 4 -140
-26 -342 -75 -88 -22 -225 -51 -305 -66 -80 -15 -173 -32 -207 -38 -49 -9 -65
-9 -77 2 -29 23 -17 139 31 300 59 198 111 305 201 408 38 42 145 169 239 282
228 274 414 492 578 680 74 85 189 219 255 297 79 93 129 145 146 149 46 12
465 -28 596 -56 100 -22 128 -34 128 -56 0 -13 7 -14 43 -8 23 5 61 9 84 9 39
0 40 1 26 17 -8 10 -13 23 -10 30 2 7 60 76 129 153 146 164 182 215 209 293
53 151 24 456 -62 640 -66 142 -224 285 -389 353 -165 67 -331 85 -485 53z
m247 -235 c79 -16 269 -110 322 -159 114 -105 169 -302 131 -463 -23 -96 -88
-219 -150 -282 -57 -59 -159 -119 -247 -146 -107 -34 -269 -20 -367 31 -89 46
-223 198 -257 291 -9 26 -18 92 -21 160 -5 106 -3 125 21 210 32 111 63 168
126 229 59 58 130 96 222 120 84 22 145 24 220 9z m-2236 -292 c114 -58 180
-174 177 -313 -3 -155 -93 -258 -255 -294 -71 -15 -141 5 -231 65 -75 49 -151
204 -151 305 0 118 97 226 231 260 67 16 172 6 229 -23z m1394 -577 c26 -14
37 -117 17 -156 -25 -49 -103 -97 -267 -164 -30 -12 -79 -33 -108 -47 -82 -36
-223 -87 -367 -133 -128 -40 -440 -155 -685 -252 -69 -28 -222 -83 -340 -123
-118 -41 -267 -94 -330 -120 -156 -63 -649 -227 -673 -223 -13 2 -27 25 -48
78 -32 82 -36 112 -16 128 18 15 373 149 532 201 50 16 176 61 280 99 105 39
253 91 330 117 232 79 601 212 748 271 75 30 206 79 290 109 83 29 190 70 237
89 128 55 317 122 378 135 2 1 12 -3 22 -9z m221 -263 c19 -12 35 -30 37 -40
4 -21 -60 -103 -223 -287 -148 -168 -238 -272 -440 -510 -86 -102 -196 -231
-243 -286 -48 -56 -133 -155 -188 -220 -215 -251 -253 -295 -378 -432 -71 -78
-134 -142 -140 -142 -15 1 -159 158 -154 169 2 4 82 91 180 192 97 101 229
245 294 319 64 74 190 218 279 320 89 102 227 259 306 350 262 299 392 431
542 551 56 45 81 48 128 16z m-428 -138 c15 -23 -18 -80 -133 -234 -143 -191
-273 -348 -505 -612 -115 -131 -232 -265 -260 -298 -27 -32 -140 -151 -250
-263 l-200 -205 -110 9 c-187 15 -377 0 -510 -41 -55 -16 -131 -20 -139 -6 -3
5 -37 27 -76 50 -69 42 -240 203 -375 354 -65 73 -84 103 -85 129 0 35 52 147
85 181 41 42 153 97 310 152 117 41 259 93 380 140 66 26 143 55 280 105 50
19 95 37 100 41 6 4 51 21 100 38 176 58 342 120 485 181 80 35 179 77 220 95
42 18 91 36 110 40 66 14 239 66 307 92 187 71 247 83 266 52z m-3114 -434
c83 -41 156 -109 214 -197 75 -114 91 -208 58 -337 -58 -230 -225 -356 -446
-338 -107 10 -158 31 -231 99 -158 149 -211 333 -149 523 52 159 120 219 315
280 74 23 154 13 239 -30z m481 -822 c14 -9 77 -65 140 -123 63 -58 140 -126
170 -150 74 -58 180 -162 180 -175 0 -6 -18 -32 -39 -58 -22 -26 -49 -63 -61
-82 -12 -19 -30 -35 -40 -35 -10 0 -49 28 -86 61 -106 95 -413 398 -431 425
-18 28 -12 59 20 94 54 61 101 75 147 43z m-1155 -2492 c107 -28 172 -66 257
-151 93 -93 141 -184 164 -312 41 -223 -27 -447 -181 -604 -38 -39 -88 -83
-111 -97 -104 -65 -314 -96 -429 -62 -84 24 -160 67 -234 130 -178 156 -229
272 -218 493 6 132 27 192 112 322 100 154 192 230 325 269 117 35 214 39 315
12z"/>
<path d="M5402 15774 c-7 -13 -20 -27 -29 -31 -10 -3 -35 -21 -56 -40 -20 -18
-44 -33 -52 -33 -8 0 -15 -4 -15 -10 0 -5 -7 -10 -16 -10 -16 0 -90 -37 -111
-57 -7 -6 -45 -22 -85 -34 -80 -25 -200 -30 -390 -15 -86 6 -98 5 -98 -9 0
-19 70 -95 88 -95 19 0 48 -30 30 -30 -7 0 -2 -9 12 -20 14 -11 30 -18 35 -16
6 2 18 -1 29 -6 15 -8 16 -12 5 -19 -9 -6 -4 -7 16 -3 17 4 32 7 35 7 3 0 30
-5 60 -12 48 -11 68 -10 155 8 62 12 104 16 110 10 5 -5 18 -9 30 -9 16 0 17
2 5 10 -12 8 -11 10 7 10 32 0 54 11 46 23 -4 6 0 8 10 4 12 -4 27 5 50 30 17
20 42 45 55 56 12 12 22 24 22 29 0 5 10 22 21 37 12 16 19 34 15 39 -3 5 0
15 8 21 15 13 23 46 31 128 5 58 -6 76 -23 37z"/>
<path d="M12970 21697 c0 -3 51 -22 113 -43 61 -20 119 -39 127 -42 10 -3 12
-2 5 6 -8 8 -86 35 -222 77 -13 3 -23 4 -23 2z"/>
<path d="M13240 21602 c8 -5 26 -13 40 -16 17 -5 20 -4 10 2 -8 5 -26 13 -40
16 -17 5 -20 4 -10 -2z"/>
<path d="M11920 21560 c-88 -7 -133 -28 -148 -67 -15 -39 -21 -243 -11 -393
29 -434 88 -715 230 -1080 54 -139 295 -613 362 -713 74 -108 172 -236 252
-327 55 -62 85 -110 99 -157 11 -35 -23 -49 -215 -87 -97 -20 -229 -50 -295
-66 -65 -17 -186 -48 -269 -70 -168 -43 -539 -162 -689 -222 -54 -21 -178 -66
-275 -99 -97 -34 -214 -76 -261 -96 -245 -101 -719 -363 -973 -538 -137 -94
-452 -326 -567 -419 -187 -149 -254 -208 -381 -335 -63 -64 -175 -172 -249
-240 -128 -120 -229 -236 -448 -513 -110 -140 -425 -607 -487 -723 -21 -38
-69 -126 -108 -195 -82 -146 -185 -367 -232 -496 -53 -145 -153 -480 -180
-599 -13 -60 -38 -205 -55 -320 -59 -408 -37 -667 90 -1060 16 -49 52 -175 81
-280 85 -314 227 -665 361 -895 167 -286 196 -327 467 -670 231 -291 357 -427
581 -625 69 -60 168 -148 220 -195 241 -218 372 -313 560 -406 70 -35 179 -92
242 -127 129 -72 535 -249 707 -308 235 -81 820 -235 1017 -268 321 -54 910
-72 1299 -40 259 21 770 113 970 174 61 18 144 43 186 54 198 55 307 96 594
224 140 62 552 279 672 353 164 102 382 251 473 325 53 42 110 80 128 84 18 3
32 11 32 16 0 14 23 10 45 -9 20 -17 86 -96 98 -118 13 -24 -85 -122 -303
-305 -137 -113 -211 -166 -345 -243 -55 -32 -149 -88 -210 -123 -161 -96 -487
-254 -617 -301 -277 -100 -500 -174 -588 -196 -52 -13 -129 -34 -170 -46 -172
-50 -345 -89 -461 -104 -235 -30 -474 -56 -572 -62 -179 -12 -93 -14 189 -5
298 11 436 28 715 89 302 67 866 259 1134 387 285 136 420 216 851 502 61 40
308 245 379 314 73 71 92 68 178 -23 100 -106 302 -339 315 -365 7 -12 12 -31
12 -43 0 -24 -75 -222 -113 -296 -14 -27 -39 -93 -57 -146 -29 -87 -35 -98
-63 -107 -16 -6 -40 -11 -53 -11 -12 0 -94 -18 -181 -39 -87 -22 -198 -47
-248 -56 -217 -40 -617 -147 -602 -161 3 -3 69 10 148 29 303 72 366 87 430
97 74 11 188 35 357 74 138 33 144 31 173 -63 27 -89 23 -119 -18 -147 -29
-20 -226 -73 -328 -90 -45 -7 -169 -35 -290 -64 -115 -29 -432 -97 -486 -105
-60 -9 -75 6 -114 119 -16 47 -31 86 -32 86 -2 0 -15 -7 -29 -16 -23 -16 -29
-16 -97 4 -40 11 -141 35 -226 52 -171 36 -241 36 -342 1 -106 -36 -144 -63
-297 -215 -170 -167 -152 -159 -200 -90 -11 16 -12 5 -8 -67 6 -100 -4 -127
-55 -151 -20 -9 -187 -55 -370 -102 -184 -46 -368 -94 -409 -105 -165 -45
-945 -201 -1007 -201 -48 0 -67 30 -71 115 -4 73 -4 73 26 89 56 29 247 76
467 116 262 47 807 182 705 174 -103 -8 -247 -32 -510 -85 -135 -28 -299 -61
-366 -74 -185 -38 -264 -60 -321 -88 -64 -33 -87 -34 -108 -5 -71 104 -115
180 -115 202 0 14 13 40 28 58 69 80 150 204 140 214 -3 2 -25 -24 -50 -59
-71 -96 -128 -157 -147 -157 -33 0 -101 89 -101 133 0 41 51 134 114 205 55
62 63 77 49 85 -5 2 -53 7 -108 10 l-100 6 37 -18 c50 -23 78 -50 78 -73 0
-26 -27 -76 -66 -122 -29 -34 -34 -47 -34 -91 0 -91 10 -88 -286 -90 -264 -2
-314 -7 -439 -47 -58 -18 -80 -32 -126 -78 -32 -31 -69 -64 -83 -73 -14 -10
-26 -22 -26 -28 0 -6 -18 -49 -41 -95 -56 -113 -25 -116 -444 36 -104 38 -230
81 -280 95 -151 45 -314 101 -435 148 -63 25 -164 62 -225 82 -137 46 -224 79
-294 112 -29 14 -70 31 -90 38 -20 7 -56 23 -81 36 -41 22 -45 28 -48 67 -2
29 5 60 22 97 30 66 44 69 139 29 77 -33 226 -84 244 -84 24 0 4 18 -26 25
-31 7 -226 117 -274 156 l-29 22 7 108 7 108 -36 58 c-48 78 -47 96 11 136
129 89 402 347 366 347 -4 0 -50 -36 -100 -79 -98 -84 -257 -208 -325 -253
-53 -35 -70 -26 -107 55 -38 84 -39 89 -30 115 7 19 4 24 -18 33 -15 6 -48 27
-72 47 -85 69 -316 234 -361 257 -109 55 -283 94 -492 110 -106 9 -121 22
-171 145 -43 106 -97 219 -108 226 -9 5 42 -141 101 -288 22 -54 37 -104 34
-111 -6 -17 -194 -100 -215 -95 -19 4 -72 -55 -191 -215 -104 -141 -192 -292
-231 -397 -70 -186 -55 -426 38 -610 87 -173 269 -407 386 -497 135 -103 267
-152 434 -160 196 -10 383 31 565 122 47 24 175 103 284 177 109 73 214 141
233 152 l34 18 28 -26 c24 -23 41 -28 162 -42 195 -22 244 -36 322 -92 26 -18
59 -54 73 -78 14 -24 45 -60 67 -80 60 -51 189 -110 282 -129 194 -39 523
-134 619 -179 101 -47 127 -73 197 -199 199 -358 374 -531 591 -582 230 -54
461 44 657 278 38 45 115 137 171 205 56 68 112 129 124 137 11 8 55 19 96 25
84 12 308 48 535 85 221 36 317 58 482 114 189 63 242 77 443 113 245 45 250
45 301 12 46 -30 142 -104 246 -191 108 -91 258 -153 367 -153 137 0 274 56
353 144 60 67 98 146 172 354 56 158 61 180 58 245 l-2 72 50 -3 c34 -2 74 5
124 22 67 23 451 112 716 166 61 12 147 30 192 41 126 29 122 31 190 -64 33
-45 86 -125 119 -177 120 -197 340 -365 581 -446 153 -51 386 -43 587 22 371
119 633 426 676 792 16 141 -9 350 -61 504 -65 195 -245 466 -395 595 -96 84
-128 127 -120 166 6 28 79 199 147 344 21 45 45 99 53 120 75 205 119 311 201
489 193 417 229 493 332 702 57 117 110 230 118 251 17 48 102 181 116 181 5
0 8 -4 5 -9 -3 -5 7 -11 22 -14 24 -4 88 -26 132 -44 8 -3 22 -7 31 -9 49 -10
229 -78 277 -105 70 -39 122 -87 122 -112 0 -28 -66 -106 -96 -113 -23 -6 -24
-8 -9 -24 13 -15 15 -31 9 -88 -16 -166 39 -402 123 -529 134 -202 357 -424
498 -494 179 -88 393 -65 625 67 202 115 348 293 401 489 18 67 21 97 16 185
-10 185 -71 399 -156 545 -47 82 -75 114 -154 179 -89 72 -174 119 -283 156
-213 72 -344 63 -549 -39 -66 -33 -144 -81 -174 -106 -43 -37 -61 -46 -82 -43
-23 4 -29 0 -34 -21 -7 -29 -82 -111 -102 -111 -7 0 -52 37 -101 83 -48 45
-132 122 -185 170 -53 49 -118 116 -144 149 l-46 61 12 46 c6 25 23 57 36 70
24 24 26 24 57 9 34 -16 108 -77 218 -182 134 -126 154 -143 134 -114 -10 15
-61 67 -112 115 -52 49 -123 118 -159 155 -39 40 -77 70 -94 73 -37 8 -51 34
-40 71 16 55 90 215 162 352 127 242 228 457 351 751 21 51 63 141 92 200 29
58 75 156 101 216 26 61 70 156 96 213 27 57 67 149 88 205 57 150 106 260
165 373 71 133 190 316 217 332 16 10 81 15 243 17 252 4 347 14 448 49 128
45 237 136 338 282 97 140 144 274 143 404 -1 87 -35 293 -65 395 -79 269
-301 484 -598 581 -76 24 -104 28 -253 32 -230 6 -234 4 -318 -130 -100 -158
-157 -238 -254 -355 -134 -162 -245 -272 -281 -279 -31 -6 -31 -6 -18 -42 7
-21 13 -65 14 -99 0 -96 10 -92 -475 -173 -193 -32 -180 -36 45 -15 187 18
219 22 289 42 79 22 99 10 99 -59 1 -77 -13 -111 -66 -160 -26 -25 -54 -53
-62 -63 -22 -28 32 11 97 70 28 25 59 45 70 45 10 0 41 -26 69 -57 64 -74 78
-98 65 -120 -15 -29 -90 -96 -176 -158 -44 -32 -114 -86 -155 -119 -155 -127
-386 -296 -400 -294 -8 2 -29 39 -47 82 -46 112 -49 113 -60 15 -3 -35 -15
-77 -25 -94 -12 -20 -18 -49 -18 -87 0 -63 -14 -77 -25 -25 -13 55 -62 142
-110 191 -50 52 -135 96 -230 121 -74 19 -93 19 -174 -1 -172 -43 -238 -111
-363 -370 -58 -122 -75 -148 -107 -170 -21 -13 -51 -26 -67 -27 -31 -2 -26
-13 -75 158 -11 39 -38 126 -59 195 -22 69 -53 177 -69 240 -17 63 -47 162
-67 219 -42 123 -44 121 68 140 173 29 564 108 633 127 62 17 281 59 423 80
98 14 270 52 247 53 -14 1 -357 -48 -375 -54 -8 -2 -44 -9 -80 -14 -158 -23
-375 -63 -485 -90 -166 -41 -378 -81 -424 -81 -21 0 -43 6 -48 13 -18 21 -24
66 -17 118 8 60 6 59 213 114 80 21 140 40 135 42 -24 8 -259 -48 -301 -72
-25 -14 -51 -25 -58 -25 -17 0 -67 57 -100 115 -15 25 -29 45 -32 45 -6 0 1
-22 77 -230 124 -338 148 -425 229 -815 50 -239 68 -351 81 -490 11 -121 16
-899 6 -955 -3 -19 -10 -98 -16 -175 -13 -195 -51 -423 -120 -737 -53 -242
-275 -810 -460 -1178 -44 -87 -246 -409 -338 -540 -149 -210 -336 -415 -437
-479 -70 -44 -104 -42 -160 12 -25 24 -45 51 -45 61 0 41 46 102 220 291 206
225 571 852 679 1165 23 69 58 160 76 202 130 296 216 653 285 1173 46 349 36
1029 -20 1395 -62 396 -65 412 -152 688 -110 353 -176 531 -276 742 -27 58
-70 156 -97 218 -26 63 -87 189 -136 280 -49 92 -85 170 -81 174 8 8 81 -1
312 -36 362 -57 694 -78 880 -57 289 33 610 99 840 174 407 133 895 373 974
480 48 65 17 149 -152 403 -190 288 -360 468 -645 687 -220 168 -306 225 -465
304 -146 74 -202 116 -202 154 1 31 12 45 85 99 78 58 414 398 560 566 148
171 301 380 410 562 48 81 129 210 180 287 107 164 120 187 129 238 7 36 4 41
-36 77 -91 84 -421 225 -725 310 -136 38 -399 94 -523 112 -142 20 -677 17
-845 -5 -159 -20 -221 -36 -545 -137 -227 -72 -278 -92 -465 -184 -115 -58
-239 -123 -275 -147 -56 -36 -353 -262 -386 -293 -6 -6 -107 -105 -225 -221
-229 -224 -282 -271 -343 -303 -62 -33 -98 6 -54 58 9 10 15 20 13 22 -2 2 4
14 14 27 12 15 29 24 50 25 20 1 30 5 26 14 -2 7 4 12 16 12 13 0 18 4 13 12
-4 7 -3 8 5 4 16 -10 33 10 63 74 25 52 80 120 97 120 4 0 30 28 57 63 107
136 313 347 419 428 153 117 217 168 229 182 6 8 33 31 60 53 46 37 47 39 25
44 -35 9 -35 36 1 69 32 29 54 69 92 168 17 46 17 55 5 67 -7 8 -20 28 -27 45
-7 17 -19 31 -26 31 -8 0 -14 7 -14 16 0 15 -21 87 -41 142 -17 45 -35 36
-146 -75 -59 -60 -169 -167 -244 -238 -167 -159 -267 -271 -381 -423 -104
-139 -162 -241 -262 -462 -74 -165 -105 -253 -126 -363 -7 -36 -16 -57 -23
-54 -7 2 -52 75 -102 161 -99 173 -277 410 -435 578 -136 145 -448 399 -655
534 -107 69 -398 214 -510 254 -390 137 -854 202 -1215 170z m466 -265 c225
-24 358 -52 579 -126 113 -38 378 -161 510 -238 262 -151 657 -538 863 -843
63 -93 224 -379 273 -483 57 -122 72 -191 70 -330 -1 -170 -8 -216 -87 -550
-16 -68 -40 -95 -88 -95 -72 0 -109 45 -166 201 -34 94 -82 186 -211 401 -222
371 -397 615 -625 868 -258 286 -418 419 -629 521 -171 82 -227 101 -291 97
-42 -3 -50 -6 -58 -29 -5 -14 -6 -39 -2 -55 9 -34 67 -92 122 -121 153 -81
227 -129 320 -208 103 -87 314 -301 314 -318 0 -12 -161 7 -368 43 -67 11 -82
5 -82 -31 0 -125 110 -174 448 -198 83 -6 130 -14 146 -25 65 -42 224 -285
322 -493 36 -76 90 -187 120 -248 60 -124 83 -200 65 -218 -8 -8 -38 -7 -113
2 -225 27 -399 41 -510 41 -64 0 -128 4 -141 9 -28 11 -60 41 -273 263 -219
228 -336 377 -446 573 -185 328 -289 619 -353 990 -83 488 -90 580 -42 603 32
15 173 14 333 -3z m5632 -459 c240 -37 569 -111 734 -167 186 -63 238 -92 238
-136 0 -108 -492 -798 -769 -1080 -59 -60 -193 -178 -235 -208 -55 -38 -172
-132 -241 -193 -41 -37 -86 -67 -110 -74 -22 -6 -45 -15 -50 -19 -10 -7 -93
-13 -335 -24 -283 -13 -680 -84 -923 -166 -98 -33 -294 -117 -401 -171 -165
-85 -420 -263 -511 -357 -27 -28 -67 -60 -90 -72 l-42 -22 -31 34 c-37 40 -40
53 -12 44 14 -4 20 -2 18 7 -2 7 6 13 17 13 14 0 20 7 20 22 0 13 6 28 12 34
12 12 6 49 -8 49 -5 0 -9 -7 -9 -15 0 -13 -2 -13 -14 -3 -12 11 -11 17 3 38
10 14 25 42 34 62 10 20 22 40 27 43 5 3 17 21 25 39 9 18 24 42 33 52 9 11
62 73 117 138 167 199 329 355 545 522 158 122 231 169 405 259 83 42 155 81
160 85 21 16 315 161 460 225 342 154 763 321 1005 400 47 15 106 38 131 51
49 24 102 79 96 98 -5 16 -109 19 -202 6 -134 -19 -442 -88 -580 -130 -297
-91 -623 -242 -1035 -480 -193 -112 -594 -443 -770 -636 -129 -140 -208 -236
-333 -401 -144 -191 -207 -287 -207 -314 0 -9 -10 -29 -22 -44 -27 -35 -60
-31 -164 21 -105 52 -118 70 -111 164 8 102 61 358 96 461 37 109 94 237 186
418 217 428 512 746 943 1015 156 97 235 139 434 231 211 96 220 96 266 6 18
-36 34 -66 35 -68 2 -1 30 2 63 8 32 5 102 13 154 17 l95 7 6 65 c7 76 26 136
48 146 58 27 625 27 799 0z m-513 -2200 c294 -46 596 -160 835 -318 162 -108
414 -313 483 -394 79 -93 306 -435 313 -471 8 -41 -32 -77 -169 -152 -142 -76
-243 -120 -437 -188 -258 -91 -295 -102 -443 -133 -78 -17 -194 -42 -257 -56
-100 -22 -147 -26 -357 -31 -214 -4 -258 -3 -380 16 -76 12 -165 28 -198 36
-33 8 -131 28 -218 45 -206 40 -337 80 -395 120 -28 19 -81 77 -132 143 -47
61 -139 177 -205 257 -166 201 -153 183 -120 170 16 -6 42 -8 59 -5 17 4 87
15 156 25 69 10 148 23 175 28 187 39 300 47 670 47 332 0 374 -2 413 -18 62
-25 102 -60 189 -162 207 -243 282 -313 323 -300 11 4 20 2 20 -4 0 -12 48
-46 55 -39 8 7 -14 155 -32 223 -9 33 -31 90 -50 126 -31 61 -40 89 -28 89 9
0 220 -61 250 -72 17 -6 94 -42 171 -79 161 -77 198 -89 271 -89 137 0 136 68
-2 176 -79 61 -354 198 -482 240 -179 59 -524 126 -763 150 -485 47 -842 18
-1312 -106 -226 -60 -273 -63 -323 -19 -21 19 -35 40 -35 55 0 70 280 268 626
442 70 35 414 150 559 186 104 26 300 63 370 69 101 9 318 5 400 -7z m-4219
-101 c8 -19 -51 -95 -158 -205 -46 -47 -95 -101 -110 -121 -37 -47 -108 -187
-108 -210 0 -11 -8 -27 -18 -37 -27 -27 -33 -49 -16 -56 8 -3 14 1 14 9 0 8 9
20 19 27 10 6 17 17 14 24 -4 12 34 31 43 21 9 -9 -21 -60 -55 -94 -24 -24
-37 -31 -44 -23 -17 16 -31 12 -17 -5 10 -12 8 -21 -12 -47 -26 -34 -61 -98
-55 -98 3 0 17 19 32 42 15 23 67 83 114 132 48 50 122 132 166 181 43 50 129
142 190 205 62 63 132 142 156 175 24 33 48 64 54 68 15 12 247 0 349 -18 147
-27 383 -112 519 -188 196 -110 371 -315 450 -527 36 -97 100 -339 93 -355 -3
-8 -22 -25 -44 -39 -48 -30 -360 -169 -552 -246 -218 -87 -220 -88 -231 -118
-7 -16 -8 -56 -5 -97 5 -58 10 -74 31 -92 l25 -22 88 30 c48 17 150 57 227 89
211 87 410 160 439 160 35 0 50 -31 41 -89 -8 -56 -103 -394 -143 -511 -123
-357 -370 -851 -545 -1095 -72 -100 -103 -130 -148 -145 -36 -12 -50 -11 -142
13 -176 45 -542 155 -610 183 -78 32 -161 92 -165 119 -1 11 21 61 49 110 29
50 79 146 111 215 33 69 95 197 138 285 110 224 138 358 142 680 3 234 -24
327 -123 433 -136 145 -259 208 -544 279 -99 25 -126 28 -265 26 -203 -2 -373
-18 -518 -49 -64 -13 -142 -29 -172 -35 -59 -12 -289 -71 -542 -140 -230 -62
-232 -60 -178 174 50 215 78 348 94 448 19 117 32 164 50 178 12 10 116 42
346 107 118 33 397 102 483 119 40 8 137 27 217 44 336 69 542 98 708 100 92
1 114 -2 118 -14z m-315 -528 c-16 -16 -26 0 -10 19 9 11 15 12 17 4 2 -6 -1
-17 -7 -23z m-2090 -57 c10 -14 25 -52 34 -85 25 -96 64 -596 51 -648 -5 -21
-45 -44 -248 -145 -191 -94 -289 -151 -458 -263 -206 -136 -468 -328 -538
-393 l-34 -31 -102 105 c-56 58 -133 132 -171 164 -106 91 -174 158 -196 194
l-21 32 22 35 c12 19 55 62 97 97 41 35 108 90 147 123 83 70 302 226 428 305
48 30 145 94 215 142 81 55 214 129 363 204 129 64 246 124 260 134 45 31 105
60 119 58 8 -2 22 -14 32 -28z m4449 -237 c470 -475 734 -834 1011 -1378 169
-331 206 -419 338 -810 103 -307 129 -397 182 -645 55 -257 90 -750 51 -718
-7 6 -10 19 -7 28 3 10 1 30 -5 45 -6 15 -13 78 -15 139 -3 61 -10 138 -16
171 -7 33 -13 74 -15 90 -14 109 -56 329 -65 340 -5 5 -9 18 -9 29 0 24 -17
81 -36 119 -8 16 -14 38 -14 50 -1 31 -34 69 -54 61 -11 -4 -16 -1 -16 10 0 9
-5 16 -11 16 -6 0 -9 6 -6 14 3 8 0 26 -6 41 -10 22 -17 25 -40 21 -20 -4 -30
-1 -34 12 -6 14 -8 13 -13 -8 -4 -14 -2 -28 4 -32 8 -6 8 -10 0 -15 -20 -15
-24 -44 -8 -68 16 -25 13 -55 -5 -55 -5 0 -12 8 -15 18 -3 9 -4 -4 -2 -31 2
-26 0 -50 -5 -53 -5 -3 -9 9 -9 25 0 17 -4 31 -10 31 -5 0 -11 10 -11 23 -1
16 -3 17 -6 5 -8 -30 -78 48 -110 122 -15 36 -64 124 -108 195 -145 234 -232
398 -335 635 -123 282 -307 592 -478 806 -68 85 -129 154 -136 154 -23 0 -36
-83 -35 -217 1 -70 3 -117 6 -103 12 77 11 76 49 34 37 -42 125 -215 176 -347
32 -84 60 -141 123 -246 51 -87 117 -231 145 -316 69 -214 115 -310 239 -499
50 -76 91 -144 91 -151 0 -10 -10 -11 -42 -3 -105 23 -315 -44 -461 -148 -26
-19 -55 -34 -65 -34 -10 0 -42 39 -84 103 -70 105 -132 188 -254 336 -83 101
-192 248 -258 348 -32 48 -48 82 -48 105 -1 18 20 87 46 153 113 284 235 711
267 930 20 135 18 370 -5 490 -23 122 -53 227 -95 324 -17 40 -31 75 -31 77 0
23 59 -30 250 -223z m-2545 -413 c197 -15 334 -71 451 -185 102 -100 131 -189
121 -373 -11 -208 -87 -442 -231 -717 -92 -176 -249 -414 -370 -562 -194 -236
-662 -669 -941 -870 -131 -94 -566 -359 -702 -427 -93 -47 -387 -170 -488
-204 -132 -46 -314 -102 -390 -121 -148 -37 -398 -64 -585 -63 -216 1 -354 29
-505 102 -175 85 -256 178 -321 365 -53 154 -32 382 56 624 110 298 218 473
529 856 147 181 240 275 431 439 209 179 212 182 412 315 248 165 449 282 672
393 517 255 1016 395 1526 428 169 10 203 10 335 0z m7670 -604 c118 -31 285
-135 343 -212 112 -150 154 -430 92 -614 -80 -241 -286 -407 -527 -427 -117
-9 -266 41 -417 142 -97 64 -169 161 -207 276 -21 66 -24 92 -24 234 0 158 1
161 33 235 79 183 216 302 417 361 73 21 220 24 290 5z m-11471 -178 c282
-183 312 -204 373 -264 89 -87 88 -99 -25 -217 -172 -181 -274 -316 -419 -552
-44 -71 -100 -161 -124 -200 -44 -69 -146 -295 -193 -430 -64 -182 -93 -375
-82 -549 13 -208 62 -326 176 -425 33 -29 60 -60 60 -70 0 -22 -296 -294 -575
-530 -77 -65 -217 -192 -312 -283 -247 -239 -296 -255 -379 -131 -76 115 -153
312 -195 499 -30 138 -28 143 78 195 194 94 454 268 539 360 73 80 139 179
119 179 -21 0 -199 -59 -289 -96 -136 -55 -312 -124 -346 -134 -14 -4 -36 -3
-49 2 -23 8 -24 11 -18 81 9 126 86 408 171 630 24 64 59 163 76 220 41 133
72 195 120 242 l39 38 138 8 c234 13 451 38 558 65 147 37 172 52 187 111 13
51 -37 61 -437 84 -235 13 -251 19 -241 81 9 56 31 95 163 291 168 249 277
389 423 542 47 50 129 143 183 207 84 102 119 136 136 138 3 0 68 -41 145 -92z
m5816 -884 c14 -28 52 -89 86 -135 221 -305 374 -538 406 -618 21 -52 23 -68
20 -243 -3 -145 0 -202 12 -250 9 -35 59 -148 111 -251 118 -234 118 -229 36
-393 -33 -66 -67 -144 -77 -174 -21 -64 -64 -142 -82 -148 -18 -6 -102 87
-158 173 -43 65 -264 443 -264 450 0 2 -34 59 -77 127 -42 68 -95 156 -119
196 -48 81 -314 467 -356 517 -36 42 -68 114 -60 134 3 9 24 36 46 61 80 88
252 332 351 500 63 108 66 111 83 108 9 -2 28 -26 42 -54z m4876 -188 c25 -24
44 -53 44 -65 0 -12 -13 -48 -30 -81 -31 -62 -80 -199 -79 -222 0 -7 8 7 19
32 35 87 136 256 157 264 25 10 117 -50 147 -95 16 -26 16 -29 -23 -130 -42
-110 -66 -166 -129 -301 -46 -96 -182 -406 -182 -413 0 -2 -39 -86 -86 -187
-47 -101 -101 -220 -119 -264 -19 -45 -59 -131 -89 -190 -30 -60 -68 -144 -85
-187 -17 -43 -55 -128 -85 -190 -29 -62 -64 -137 -77 -167 -12 -30 -69 -148
-126 -263 -57 -114 -103 -209 -103 -212 0 -2 -22 -51 -50 -110 -27 -58 -57
-132 -66 -163 -17 -61 -66 -171 -94 -212 -22 -33 -78 -142 -130 -255 -23 -49
-136 -279 -250 -510 -115 -231 -238 -487 -273 -570 -91 -208 -184 -421 -209
-475 -11 -25 -59 -133 -105 -240 -136 -312 -154 -337 -240 -324 -35 5 -57 16
-80 39 -32 32 -33 34 -19 71 7 22 34 82 58 134 25 52 57 128 72 168 16 40 55
126 89 190 65 126 169 363 163 370 -4 4 -72 -132 -221 -443 -113 -235 -131
-276 -165 -378 -18 -54 -40 -106 -49 -116 -29 -33 -571 -181 -660 -181 -16 0
-50 26 -105 78 -279 268 -369 334 -143 106 97 -99 177 -186 177 -194 0 -8 -28
-40 -62 -72 -88 -81 -96 -80 -211 35 -50 51 -145 139 -209 195 -64 57 -155
147 -201 200 -46 53 -146 153 -222 222 -76 69 -176 159 -221 201 -45 42 -140
126 -211 187 -159 136 -273 255 -273 287 0 40 69 114 106 115 54 0 233 -152
622 -526 131 -127 287 -270 346 -317 l107 -85 162 162 c92 91 209 220 268 296
106 136 119 154 200 288 49 82 107 177 191 314 59 98 230 435 268 528 41 102
79 194 131 320 28 69 66 171 84 228 37 116 59 149 83 129 13 -9 14 -9 8 1 -4
6 -3 12 3 12 6 0 8 7 5 15 -4 11 1 15 17 15 15 0 19 3 12 8 -6 4 7 8 30 8 23
1 36 -1 29 -3 -6 -3 -9 -9 -6 -15 10 -15 36 30 29 51 -3 10 -16 24 -30 31 -13
7 -25 22 -27 34 -2 11 -16 27 -31 34 -24 12 -28 19 -23 41 3 14 12 105 21 201
9 96 20 191 25 210 5 19 14 74 19 122 13 117 27 166 50 173 17 5 17 7 -3 48
-20 40 -21 54 -18 327 2 222 6 290 17 306 13 20 25 22 237 28 241 8 316 20
493 76 195 63 287 128 344 246 19 38 52 143 76 240 24 95 51 186 59 201 15 29
68 77 146 130 25 17 95 72 155 123 61 50 148 117 195 148 46 31 127 92 178
135 52 42 103 77 115 77 11 0 39 -20 63 -44z m-6649 -155 c383 -151 696 -321
738 -402 12 -21 11 -30 -3 -60 -23 -46 -517 -540 -671 -670 -276 -232 -350
-288 -606 -460 -456 -306 -607 -381 -686 -339 -42 23 -93 130 -130 275 -33
131 -109 468 -109 485 0 23 45 62 110 96 67 35 266 166 375 248 173 129 435
372 776 718 69 70 133 128 142 128 9 0 38 -8 64 -19z m3558 -1 c3 -5 1 -10 -4
-10 -6 0 -11 5 -11 10 0 6 2 10 4 10 3 0 8 -4 11 -10z m-126 -160 c18 -39 42
-75 53 -81 10 -5 16 -14 13 -20 -4 -5 -2 -9 4 -9 6 0 8 -7 5 -15 -4 -8 -2 -15
4 -15 11 0 57 -88 50 -95 -2 -2 -14 13 -28 33 -13 20 -41 57 -62 80 -44 51
-88 136 -88 169 0 39 14 26 49 -47z m1847 14 c59 -17 151 -80 201 -137 126
-143 123 -370 -5 -509 -77 -83 -205 -122 -323 -99 -35 7 -77 20 -93 28 -48 25
-142 128 -172 190 -26 53 -29 67 -29 163 1 141 24 202 109 285 91 90 189 115
312 79z m-2197 -170 c69 -37 172 -123 215 -180 76 -99 94 -261 42 -384 -55
-132 -96 -171 -227 -211 -103 -32 -225 -33 -293 -2 -96 45 -237 221 -267 334
-16 60 2 147 47 239 97 193 326 290 483 204z m-1981 -326 c15 -20 57 -75 94
-121 38 -47 117 -166 178 -266 60 -100 127 -207 148 -239 22 -31 72 -115 112
-187 40 -71 87 -152 104 -180 52 -81 237 -414 262 -472 28 -62 31 -140 9 -202
-8 -23 -36 -86 -63 -139 -27 -53 -55 -115 -62 -137 -7 -22 -22 -58 -33 -79
l-21 -39 -28 34 c-16 19 -63 88 -105 154 -42 66 -136 210 -208 320 -73 110
-161 246 -196 303 -120 192 -244 386 -357 556 -139 211 -235 394 -226 432 4
14 52 73 108 131 99 103 156 176 156 200 0 6 8 19 17 29 16 16 19 15 51 -22
19 -21 46 -56 60 -76z m-599 -510 c8 -13 19 -39 25 -58 7 -19 41 -80 78 -135
92 -140 300 -492 395 -670 44 -82 104 -186 133 -230 29 -44 94 -143 145 -220
151 -228 322 -552 301 -572 -3 -3 -28 3 -56 12 -40 13 -74 16 -144 13 -103 -5
-173 -29 -272 -94 -78 -51 -129 -67 -149 -47 -8 8 -15 19 -15 24 0 6 -6 9 -12
7 -19 -4 -77 34 -84 54 -3 10 -10 16 -15 13 -13 -8 -11 9 2 22 17 17 1 37 -17
22 -12 -10 -16 -9 -20 8 -4 14 -13 19 -34 18 -20 -1 -39 8 -65 32 -20 18 -45
33 -56 33 -17 0 -24 11 -20 34 1 5 -5 6 -14 3 -23 -9 -45 43 -71 168 -58 285
-188 461 -418 565 -101 46 -186 63 -296 58 -88 -4 -101 -7 -180 -47 -112 -57
-185 -105 -222 -144 -46 -48 -138 -193 -160 -249 -19 -51 -58 -294 -58 -365 0
-33 -7 -50 -30 -77 -27 -30 -367 -268 -463 -323 -52 -30 -61 -29 -85 10 -10
17 -64 106 -119 197 -55 91 -116 195 -136 232 -20 37 -55 95 -77 130 -70 107
-65 128 37 181 38 19 142 73 233 119 91 46 201 99 245 117 103 42 201 95 339
185 128 84 231 147 331 202 102 56 262 170 405 289 47 39 159 132 250 206 91
73 203 171 250 216 47 45 90 83 95 83 6 0 17 -10 24 -22z m2269 -183 c31 -55
24 -96 -32 -195 -26 -44 -107 -200 -181 -347 -74 -148 -212 -407 -306 -578
-94 -170 -207 -383 -251 -472 -62 -128 -88 -170 -121 -198 -48 -41 -72 -43
-118 -12 -30 21 -34 28 -32 65 1 25 18 77 42 128 23 47 41 88 41 91 0 18 192
393 284 553 62 107 136 245 165 305 30 61 61 121 71 135 10 14 59 99 109 189
97 172 171 287 223 347 42 47 74 44 106 -11z m-4503 -29 c18 -28 35 -174 61
-547 9 -135 14 -263 10 -284 -14 -73 -40 -88 -343 -211 -600 -242 -623 -250
-993 -348 -268 -70 -352 -89 -510 -111 -153 -21 -195 -20 -214 7 -35 49 -26
74 108 295 47 79 107 184 132 235 26 51 77 147 114 213 37 66 84 152 105 190
45 84 88 131 129 144 17 5 81 19 141 31 297 57 488 111 686 193 47 19 134 52
194 72 59 20 155 60 214 90 58 29 116 54 128 54 13 1 29 -9 38 -23z m5089
-123 c65 -101 259 -491 310 -626 25 -65 55 -152 67 -195 11 -42 29 -111 40
-152 22 -81 27 -227 10 -257 -8 -14 -10 -8 -11 29 0 80 -19 140 -73 229 -29
48 -71 118 -93 155 -23 38 -58 107 -79 154 -49 112 -129 271 -170 340 -63 107
-125 233 -125 255 0 13 -7 28 -15 35 -22 18 -19 30 17 67 49 51 71 45 122 -34z
m-7390 -187 c152 -71 218 -86 456 -101 106 -7 122 -19 97 -71 -10 -19 -35 -62
-56 -93 -40 -61 -151 -245 -163 -271 -4 -8 -40 -62 -82 -120 -141 -197 -206
-298 -266 -411 -85 -161 -88 -163 -208 -168 -190 -7 -480 30 -622 79 -129 45
-264 111 -273 134 -12 30 56 136 197 306 115 139 402 420 511 500 55 41 141
116 190 167 50 51 98 93 107 93 10 0 60 -20 112 -44z m6880 -309 c103 -141
135 -196 257 -439 27 -53 49 -101 49 -105 0 -10 77 -202 90 -225 12 -22 13
-46 2 -33 -5 6 -23 44 -41 85 -19 41 -44 98 -56 125 -12 28 -28 67 -36 88 -7
20 -17 37 -21 37 -4 0 -19 22 -32 48 -13 26 -44 77 -68 113 -23 35 -52 83 -63
104 -11 22 -24 43 -30 47 -5 4 -6 8 -2 8 5 0 -7 23 -27 50 -20 28 -36 52 -36
55 0 3 -11 23 -25 44 -25 41 -46 105 -28 86 6 -5 36 -45 67 -88z m-2919 -382
c63 -16 160 -70 208 -113 45 -42 104 -144 116 -198 16 -79 -7 -199 -60 -308
-52 -108 -101 -142 -245 -171 -190 -38 -312 34 -413 244 -45 95 -45 97 -46
201 0 125 20 182 88 247 103 98 222 131 352 98z m2635 -116 c0 -5 25 -61 55
-123 58 -119 64 -136 40 -116 -8 7 -15 16 -15 20 0 5 -22 56 -50 114 -54 115
-55 116 -40 116 6 0 10 -5 10 -11z m1080 -245 c0 -7 7 -14 15 -18 8 -3 15 -14
15 -25 0 -11 5 -23 10 -26 6 -3 10 -15 10 -25 0 -10 9 -25 19 -32 17 -12 18
-17 6 -46 -25 -59 -40 -41 -75 93 -11 39 -24 86 -29 105 l-11 35 20 -25 c11
-14 20 -30 20 -36z m-5695 -39 c14 -13 25 -33 25 -43 0 -11 8 -30 18 -43 80
-104 306 -530 323 -608 l11 -52 -58 -54 c-32 -30 -61 -55 -64 -55 -4 0 -21
-12 -38 -27 -46 -42 -57 -50 -127 -99 -36 -24 -87 -59 -113 -77 -54 -38 -157
-96 -128 -73 17 14 17 16 3 22 -10 3 -17 16 -17 29 0 25 -29 43 -40 24 -13
-20 -45 -6 -42 19 2 16 -1 20 -12 16 -9 -4 -16 -1 -16 6 0 8 -11 11 -30 8 -21
-3 -27 -1 -20 6 17 17 12 24 -30 51 -22 14 -40 30 -40 36 0 5 -9 19 -20 31
-10 12 -17 25 -14 30 3 4 2 8 -3 9 -4 0 -20 2 -34 4 -32 4 -47 -19 -57 -90 -7
-46 -10 -51 -42 -62 -19 -7 -27 -12 -17 -12 9 -1 17 -8 17 -16 0 -8 -6 -14
-12 -12 -8 1 -14 -11 -16 -28 -2 -16 -11 -36 -20 -42 -14 -12 -14 -13 2 -13
15 0 16 -3 6 -15 -7 -9 -10 -27 -7 -43 11 -53 -2 -55 -99 -19 -126 48 -185 60
-294 60 -85 0 -102 -3 -163 -32 -38 -17 -74 -31 -81 -31 -7 0 -22 18 -34 39
-13 22 -48 77 -79 123 -72 105 -161 254 -203 338 -18 36 -52 93 -76 128 -49
72 -60 100 -46 114 6 6 68 21 139 35 449 84 547 106 783 178 25 8 92 28 150
45 237 70 335 105 447 160 65 32 124 59 131 59 7 1 24 -10 37 -24z m4749 -21
c3 -8 2 -12 -4 -9 -6 3 -10 10 -10 16 0 14 7 11 14 -7z m-275 -214 c45 -76 84
-147 88 -157 3 -10 12 -25 18 -33 25 -30 125 -276 102 -250 -2 3 -24 43 -49
90 -67 127 -82 150 -97 150 -8 0 -11 6 -7 15 5 14 -10 62 -24 75 -11 11 -45
71 -96 170 -21 41 -31 80 -20 80 3 0 41 -63 85 -140z m-7833 97 c99 -84 235
-154 404 -206 192 -60 174 -48 183 -116 4 -33 15 -85 25 -115 32 -108 322
-646 449 -834 29 -43 53 -80 53 -82 0 -3 17 -28 38 -57 21 -29 64 -97 95 -152
30 -55 78 -132 106 -170 27 -39 67 -94 88 -123 21 -29 49 -65 62 -80 13 -15
52 -62 88 -104 103 -121 118 -126 210 -68 53 34 62 31 94 -31 28 -56 25 -92
-11 -122 -37 -31 -123 -61 -155 -53 -13 3 -52 30 -87 58 -97 81 -308 281 -308
292 0 10 35 -11 50 -28 7 -9 18 -16 25 -16 7 0 18 -7 25 -15 7 -8 33 -25 59
-37 25 -12 49 -24 54 -26 12 -6 8 16 -6 30 -7 7 -19 27 -26 45 -7 18 -19 37
-26 43 -8 6 -11 18 -8 26 3 8 -1 14 -10 14 -9 0 -19 5 -23 12 -4 7 -3 8 4 4
23 -14 11 13 -20 48 -40 43 -58 64 -58 69 0 2 -18 24 -41 48 -43 47 -84 110
-194 302 -37 64 -80 131 -95 147 -16 17 -30 34 -32 39 -4 12 -59 81 -85 108
-12 12 -24 31 -28 42 -4 13 -12 18 -22 14 -12 -5 -14 -1 -8 15 5 19 2 22 -18
22 -14 0 -27 -6 -30 -12 -2 -7 -8 -10 -12 -6 -4 4 -2 14 5 23 9 11 9 15 1 15
-15 0 -61 45 -61 60 0 11 -28 44 -39 46 -3 0 -14 4 -24 8 -10 5 -23 3 -32 -4
-15 -12 -35 -6 -35 12 0 5 6 8 14 5 22 -9 26 3 8 22 -12 13 -22 15 -35 9 -15
-8 -20 -5 -24 11 -6 25 -19 27 -27 5 -11 -28 -7 -42 26 -90 17 -26 32 -54 33
-63 1 -9 10 -32 20 -51 10 -19 20 -45 21 -58 4 -38 99 -217 149 -281 25 -33
45 -63 45 -67 0 -3 33 -44 73 -89 143 -163 162 -188 101 -136 -21 18 -66 63
-98 100 -32 36 -62 68 -65 71 -21 17 -131 153 -207 255 -50 66 -133 176 -185
245 -52 69 -116 161 -143 205 -27 44 -78 127 -114 185 -101 162 -198 363 -242
499 -57 178 -52 204 26 138z m8739 -59 c15 -40 36 -95 47 -121 11 -27 17 -51
15 -53 -2 -3 -17 26 -33 63 -15 37 -31 72 -36 78 -4 5 -8 16 -8 25 0 8 -6 27
-14 42 -11 22 -12 38 -1 38 1 0 14 -33 30 -72z m-3973 5 c8 -10 25 -35 38 -57
23 -37 23 -39 6 -71 -24 -45 -75 -85 -293 -232 -281 -190 -347 -233 -473 -308
-63 -37 -182 -118 -265 -179 -82 -62 -226 -163 -320 -225 -93 -62 -201 -139
-240 -170 -90 -74 -177 -131 -199 -131 -27 0 -74 59 -81 102 -8 47 6 66 105
136 36 25 97 71 135 102 103 82 194 147 341 243 127 83 240 162 464 327 58 43
130 90 160 105 75 37 175 102 482 313 96 66 116 72 140 45z m1245 -100 c60
-49 139 -109 175 -135 77 -55 94 -88 79 -144 -6 -22 -21 -52 -34 -68 -19 -23
-29 -28 -49 -23 -54 14 -398 276 -398 303 0 31 84 154 105 154 6 0 61 -39 122
-87z m5094 -43 c22 -22 29 -37 27 -57 -3 -24 -7 -28 -33 -26 -60 4 -106 11
-112 16 -6 6 42 76 61 89 18 13 26 9 57 -22z m-9749 -117 c9 -10 21 -41 28
-70 6 -28 32 -84 56 -124 24 -39 79 -135 121 -213 42 -77 102 -185 135 -238
71 -118 148 -269 148 -289 0 -8 -19 -44 -41 -78 -59 -90 -88 -159 -106 -248
-13 -65 -14 -87 -3 -138 31 -151 25 -159 -26 -35 -36 89 -130 251 -233 403
-150 221 -336 520 -403 647 -93 175 -167 377 -140 381 4 1 92 3 196 5 104 2
191 6 194 9 12 12 60 4 74 -12z m5519 -39 c85 -25 225 -102 285 -157 66 -60
99 -122 114 -208 23 -148 4 -247 -68 -353 -55 -81 -158 -165 -242 -197 -183
-69 -407 58 -530 301 -105 208 13 494 250 604 64 30 115 32 191 10z m633 -36
c-3 -5 -1 -8 4 -8 8 0 141 -258 177 -345 20 -49 24 -57 60 -120 46 -81 75
-139 75 -150 0 -15 -76 112 -107 180 -16 33 -74 152 -130 264 -96 190 -123
252 -89 206 8 -11 12 -23 10 -27z m4824 -28 c92 -12 218 -66 287 -123 82 -67
161 -164 184 -225 30 -78 48 -271 33 -354 -26 -140 -137 -295 -262 -365 -103
-57 -175 -77 -285 -77 -91 0 -107 3 -174 32 -224 98 -359 240 -401 421 -25
107 6 304 66 424 47 91 169 195 280 237 43 16 125 33 189 38 6 1 43 -3 83 -8z
m-7431 -143 c26 -40 133 -226 133 -232 0 -6 92 -165 155 -270 23 -38 76 -137
118 -218 75 -145 94 -193 63 -165 -8 7 -14 15 -13 18 1 3 -25 44 -56 92 -31
48 -57 92 -57 97 0 5 -6 16 -13 23 -13 13 -59 91 -117 201 -17 31 -35 57 -40
57 -6 0 -9 3 -8 8 2 4 -5 18 -14 31 l-17 24 -20 -24 c-11 -13 -20 -28 -21 -33
0 -4 -9 -6 -20 -3 -17 4 -20 0 -20 -30 0 -19 -4 -32 -10 -28 -5 3 -7 12 -4 20
5 12 -1 14 -25 11 -42 -5 -44 -9 -20 -35 24 -25 18 -42 -6 -18 -15 16 -45 13
-45 -4 0 -5 -9 -9 -19 -9 -10 0 -22 -7 -25 -15 -4 -13 -10 -14 -26 -5 -13 7
-20 7 -20 1 0 -6 12 -17 28 -25 28 -16 21 -20 -33 -16 -29 1 -29 1 -10 -13 29
-22 12 -31 -24 -13 -21 11 -32 13 -37 5 -3 -6 -19 -9 -35 -7 -20 3 -29 0 -29
-9 0 -7 -5 -13 -11 -13 -6 0 -8 -7 -5 -16 5 -12 2 -15 -10 -10 -29 11 -52 -2
-47 -27 5 -22 5 -22 -12 -2 -13 16 -16 16 -11 3 3 -9 0 -19 -7 -21 -7 -2 7
-27 35 -61 27 -32 45 -62 42 -67 -3 -5 -1 -9 3 -9 11 0 47 -60 36 -60 -4 -1 1
-8 12 -18 11 -9 29 -34 40 -56 11 -21 28 -44 38 -50 27 -17 89 -106 74 -106
-57 0 -398 500 -477 699 -23 60 -21 82 8 74 14 -3 18 -11 14 -26 -5 -20 -4
-21 12 -8 19 16 34 7 18 -12 -7 -8 -7 -18 -2 -27 8 -12 10 -10 10 9 0 18 4 22
20 18 11 -3 20 -1 20 4 0 5 -3 9 -7 9 -5 0 -14 12 -20 27 -14 28 -17 51 -7 40
3 -3 15 3 26 13 11 10 31 21 45 25 22 5 171 92 236 136 19 14 27 16 27 7 0 -7
8 -1 18 15 24 38 94 56 136 35 12 -7 16 -7 12 0 -10 16 -17 92 -9 92 5 0 18
-15 30 -33z m3224 -134 c5 -13 7 -23 5 -23 -9 0 -55 92 -61 122 -5 26 -1 21
20 -22 15 -30 31 -65 36 -77z m-2681 -117 c24 -35 48 -62 53 -59 4 2 7 1 6 -4
-3 -10 12 -46 21 -53 4 -3 18 -26 32 -51 61 -109 72 -124 88 -114 5 3 10 2 10
-4 0 -5 -5 -11 -12 -13 -7 -3 -8 -10 -4 -17 7 -11 10 -11 18 0 7 10 8 8 3 -8
-3 -13 -1 -25 7 -30 7 -4 22 -25 33 -47 25 -49 99 -126 120 -126 9 0 13 -4 10
-10 -3 -6 1 -7 9 -4 19 7 21 -7 4 -24 -9 -9 -9 -12 0 -12 20 0 13 -14 -14 -27
-25 -12 -54 -8 -54 7 0 5 -19 37 -43 72 -191 280 -236 349 -261 393 -16 28
-52 91 -81 140 -29 50 -56 101 -60 115 -5 21 -1 19 32 -17 21 -23 58 -71 83
-107z m440 96 c45 -53 136 -195 179 -280 11 -22 11 -22 -8 -10 -12 7 -21 17
-21 22 0 11 -107 173 -129 196 -20 20 -53 90 -43 90 4 0 14 -8 22 -18z m-324
-157 c4 -8 10 -12 15 -9 5 3 9 -4 9 -15 0 -12 6 -20 12 -18 7 1 14 -8 16 -20
2 -13 -1 -23 -7 -23 -6 0 -11 4 -11 8 0 5 -16 27 -36 50 -26 30 -31 42 -19 42
8 0 18 -7 21 -15z m-527 -66 c-12 -7 -12 -9 0 -9 8 0 12 -3 8 -6 -10 -10 -26
6 -21 21 4 8 11 12 16 9 6 -4 5 -10 -3 -15z m-1908 -26 c13 -16 12 -17 -3 -4
-17 13 -22 21 -14 21 2 0 10 -8 17 -17z m1879 -28 c0 -16 -6 -25 -15 -25 -18
0 -18 5 -5 31 14 26 20 24 20 -6z m30 10 c5 3 12 0 15 -6 5 -7 1 -10 -10 -7
-10 1 -20 9 -21 16 -1 7 0 8 3 2 2 -5 9 -8 13 -5z m595 -5 c3 -5 2 -10 -4 -10
-5 0 -13 5 -16 10 -3 6 -2 10 4 10 5 0 13 -4 16 -10z m-2450 -10 c3 -5 -1 -10
-10 -10 -9 0 -13 5 -10 10 3 6 8 10 10 10 2 0 7 -4 10 -10z m1672 -86 c-3 -3
-12 -4 -19 -1 -8 3 -5 6 6 6 11 1 17 -2 13 -5z m-632 -309 c42 -71 89 -150
105 -175 106 -165 139 -234 125 -266 -7 -16 -9 -15 -15 11 -9 42 -33 92 -75
150 -19 28 -41 58 -48 69 -6 10 -18 24 -24 32 -7 7 -13 15 -13 19 0 3 -5 11
-11 18 -32 37 -108 164 -147 247 -24 52 -53 103 -63 113 -10 10 -19 28 -19 39
0 31 88 -92 185 -257z m-3325 235 c0 -13 -5 -18 -15 -14 -16 7 -19 17 -8 27
12 13 23 7 23 -13z m3745 -10 c3 -5 1 -10 -4 -10 -6 0 -11 5 -11 10 0 6 2 10
4 10 3 0 8 -4 11 -10z m1731 -18 c6 -4 16 -17 23 -30 27 -52 -21 -119 -157
-215 -59 -42 -152 -114 -207 -159 -55 -46 -143 -115 -195 -155 -52 -39 -135
-105 -185 -145 -162 -133 -326 -258 -337 -258 -17 0 -104 93 -110 118 -10 35
31 82 127 149 148 102 292 213 399 306 55 48 157 128 226 178 69 50 157 115
195 145 39 30 84 58 100 63 37 11 106 13 121 3z m-2462 -45 c-2 -7 -19 -18
-37 -25 -18 -6 -46 -23 -62 -37 -17 -14 -43 -36 -60 -50 -16 -14 -42 -29 -57
-32 -16 -3 -28 -9 -28 -14 0 -5 -7 -9 -15 -9 -8 0 -15 -4 -15 -8 0 -11 -59
-32 -65 -22 -6 9 51 60 66 60 5 0 18 8 29 18 10 9 54 34 97 55 43 21 94 47
113 57 43 23 40 23 34 7z m-1453 -23 c180 -54 295 -172 330 -340 11 -54 10
-69 -11 -155 -13 -52 -32 -112 -43 -134 -29 -57 -125 -148 -193 -181 -51 -25
-70 -29 -149 -29 -83 1 -96 3 -160 35 -91 45 -211 162 -248 241 -36 77 -44
165 -23 264 19 93 50 150 108 200 113 97 265 136 389 99z m1429 -24 c0 -5 -4
-10 -10 -10 -5 0 -10 5 -10 10 0 6 5 10 10 10 6 0 10 -4 10 -10z m90 -65 c-7
-8 -16 -15 -20 -15 -3 0 -7 7 -7 15 0 8 9 15 20 15 16 0 17 -3 7 -15z m133 8
c-7 -2 -13 -11 -13 -19 0 -8 -4 -14 -10 -14 -5 0 -10 6 -10 14 0 14 15 24 35
24 6 0 4 -2 -2 -5z m717 -343 c0 -5 -4 -10 -10 -10 -5 0 -10 5 -10 10 0 6 5
10 10 10 6 0 10 -4 10 -10z m25 -20 c-3 -5 -11 -10 -16 -10 -6 0 -7 5 -4 10 3
6 11 10 16 10 6 0 7 -4 4 -10z m25 -14 c0 -3 -4 -8 -10 -11 -5 -3 -10 -1 -10
4 0 6 5 11 10 11 6 0 10 -2 10 -4z m-1733 -130 c37 -14 284 -93 608 -194 88
-28 200 -63 249 -78 49 -15 102 -39 119 -53 28 -24 29 -27 22 -84 -12 -109
-31 -125 -109 -88 -51 23 -155 57 -356 115 -174 50 -598 194 -647 219 -45 24
-57 50 -43 92 27 82 73 103 157 71z m1669 -207 c103 -32 153 -61 212 -123 61
-64 96 -134 112 -223 29 -163 -68 -351 -219 -428 -71 -36 -192 -45 -276 -21
-112 32 -231 135 -290 252 -24 48 -30 71 -29 119 2 69 35 209 64 264 47 94
194 179 311 180 26 1 78 -9 115 -20z m4886 -648 c144 -37 313 -138 392 -234
129 -157 206 -426 177 -616 -21 -134 -95 -300 -182 -411 -111 -140 -371 -260
-566 -260 -144 0 -343 69 -469 162 -138 103 -254 317 -273 508 -31 297 104
607 327 753 86 56 133 75 262 104 122 27 210 25 332 -6z m-9496 -123 c169 -70
305 -202 397 -385 132 -262 58 -592 -185 -819 -106 -99 -338 -194 -473 -194
-117 0 -306 85 -473 212 -94 72 -194 257 -222 408 -17 92 -5 246 26 338 37
110 100 218 167 285 68 68 195 133 312 160 39 9 79 18 90 21 11 3 83 3 160 2
122 -3 148 -6 201 -28z m2898 -93 c11 -8 15 -15 10 -15 -6 0 -19 7 -30 15 -10
8 -14 14 -9 14 6 0 19 -6 29 -14z m76 -35 c0 -10 -38 -1 -45 10 -2 4 7 5 20 2
14 -2 25 -8 25 -12z m96 -47 c-6 -6 -36 9 -36 18 0 5 9 4 20 -3 10 -7 18 -14
16 -15z m3546 -753 c178 -89 258 -206 258 -381 0 -160 -94 -311 -233 -375 -54
-24 -66 -26 -160 -22 -123 6 -167 26 -253 121 -134 149 -176 305 -114 431 31
65 109 157 164 195 65 43 121 60 204 61 62 0 83 -5 134 -30z m-3284 -501 c133
-53 216 -113 267 -193 113 -179 89 -400 -61 -553 -165 -167 -341 -196 -551
-89 -57 28 -134 105 -170 167 -61 108 -68 257 -18 404 43 130 103 197 224 252
117 52 200 56 309 12z"/>
<path d="M15271 16704 c0 -11 3 -14 6 -6 3 7 2 16 -1 19 -3 4 -6 -2 -5 -13z"/>
<path d="M15262 16655 c0 -16 2 -22 5 -12 2 9 2 23 0 30 -3 6 -5 -1 -5 -18z"/>
<path d="M15251 16588 c0 -9 -4 -25 -7 -35 -5 -17 -5 -17 6 0 6 10 9 25 7 35
-4 15 -5 15 -6 0z"/>
<path d="M16680 15270 c0 -5 5 -10 10 -10 6 0 10 5 10 10 0 6 -4 10 -10 10 -5
0 -10 -4 -10 -10z"/>
<path d="M20771 15949 c-11 -19 -81 -59 -102 -59 -6 0 -25 -7 -42 -15 -18 -8
-76 -28 -129 -44 -54 -17 -106 -35 -116 -40 -10 -5 -42 -11 -71 -12 -29 -2
-54 -6 -57 -11 -3 -5 -9 -6 -14 -3 -14 9 -98 -16 -103 -29 -3 -7 -20 -13 -38
-14 -17 0 -35 -6 -40 -13 -4 -6 -14 -9 -23 -6 -10 4 -24 -1 -36 -13 -13 -13
-29 -17 -50 -15 -27 4 -30 2 -20 -10 7 -8 18 -15 26 -15 7 0 17 -6 21 -12 4
-7 24 -21 43 -31 19 -9 55 -28 80 -42 101 -55 300 -69 415 -30 164 57 335 252
331 380 -1 36 -4 40 -32 46 -24 4 -34 2 -43 -12z"/>
<path d="M19895 15700 c3 -5 8 -10 11 -10 2 0 4 5 4 10 0 6 -5 10 -11 10 -5 0
-7 -4 -4 -10z"/>
<path d="M19920 15700 c0 -5 5 -10 10 -10 6 0 10 5 10 10 0 6 -4 10 -10 10 -5
0 -10 -4 -10 -10z"/>
<path d="M19242 14215 c-17 -37 -14 -45 4 -12 9 16 14 31 11 33 -2 2 -9 -7
-15 -21z"/>
<path d="M19197 14127 c-14 -24 -73 -142 -130 -263 -58 -120 -140 -291 -182
-379 -43 -88 -95 -200 -117 -250 -49 -112 -205 -415 -223 -434 -21 -22 -42 -6
-71 51 -42 82 -100 164 -174 242 -37 39 -104 114 -150 166 -45 52 -121 131
-168 175 -73 69 -122 108 -271 219 -14 11 26 -29 89 -89 263 -246 553 -558
631 -679 21 -32 41 -73 45 -92 7 -38 -17 -121 -46 -156 -17 -22 -19 -22 -37
-5 -33 30 -44 19 -18 -19 28 -41 27 -46 -12 -164 -46 -137 -66 -159 -109 -120
-28 27 -30 21 -8 -21 14 -27 14 -35 -1 -85 -9 -31 -27 -64 -40 -76 -28 -25
-32 -38 -10 -38 24 0 19 -27 -38 -201 -55 -166 -167 -419 -337 -759 -88 -175
-122 -250 -115 -250 3 0 57 100 183 340 58 112 261 569 290 655 12 33 30 92
42 130 12 39 55 133 95 210 40 77 90 181 110 230 55 132 79 183 285 600 103
209 214 439 245 510 31 72 78 173 102 225 25 52 67 140 93 195 80 168 99 221
47 132z"/>
<path d="M17780 12551 c8 -5 29 -11 45 -14 l30 -6 -30 14 c-34 16 -72 21 -45
6z"/>
<path d="M17550 12500 c0 -5 5 -10 10 -10 6 0 10 5 10 10 0 6 -4 10 -10 10 -5
0 -10 -4 -10 -10z"/>
<path d="M17650 12506 c0 -2 7 -9 15 -16 13 -11 14 -10 9 4 -5 14 -24 23 -24
12z"/>
<path d="M17605 12480 c-3 -5 -1 -10 4 -10 6 0 11 5 11 10 0 6 -2 10 -4 10 -3
0 -8 -4 -11 -10z"/>
<path d="M18001 12476 c8 -8 79 -35 79 -30 0 3 -16 12 -35 20 -33 14 -53 18
-44 10z"/>
<path d="M17630 12376 c0 -8 146 -105 175 -116 39 -15 29 -3 -22 26 -27 15
-55 33 -63 39 -27 21 -90 57 -90 51z"/>
<path d="M17840 12246 c0 -2 7 -7 16 -10 8 -3 12 -2 9 4 -6 10 -25 14 -25 6z"/>
<path d="M18073 12146 c26 -14 58 -26 70 -25 17 0 13 5 -18 19 -22 10 -53 22
-70 25 -24 6 -20 2 18 -19z"/>
<path d="M16948 11021 c-26 -17 -54 -40 -62 -54 -22 -33 -31 -110 -17 -145 11
-26 57 -69 78 -74 5 -1 15 -11 24 -21 15 -19 17 -19 41 -3 24 15 26 15 39 -1
12 -14 12 -16 0 -9 -9 6 -12 5 -9 -4 7 -21 27 -24 34 -5 4 10 -1 21 -12 29
-16 13 -17 15 -2 30 22 21 27 20 21 -3 -3 -13 2 -21 16 -26 12 -3 19 -11 16
-16 -4 -5 -2 -9 3 -9 15 0 24 33 11 41 -6 4 -13 18 -14 31 -2 19 2 24 24 26
27 2 54 28 45 44 -3 4 -12 1 -20 -7 -20 -19 -44 -19 -44 0 0 8 4 15 8 15 4 0
9 11 10 25 1 14 -3 25 -8 25 -6 0 -10 5 -10 10 0 6 7 10 15 10 9 0 12 6 9 15
-9 22 -18 18 -33 -15 -10 -24 -10 -34 -1 -46 7 -8 9 -18 5 -22 -4 -4 -10 -1
-12 5 -3 7 -13 23 -24 35 -19 23 -19 23 -34 4 -8 -11 -15 -15 -15 -9 0 5 9 18
20 28 11 10 20 13 20 7 0 -26 29 -10 35 19 6 27 3 35 -21 55 -16 13 -40 24
-54 24 -23 1 -23 2 -5 10 18 8 18 9 -6 9 -14 1 -46 -12 -71 -28z m107 -11 c3
-5 1 -10 -4 -10 -6 0 -11 5 -11 10 0 6 2 10 4 10 3 0 8 -4 11 -10z m23 -139
c3 -8 -1 -12 -9 -9 -7 2 -15 10 -17 17 -3 8 1 12 9 9 7 -2 15 -10 17 -17z
m-14 -80 c-5 -6 -34 20 -34 30 0 5 8 1 18 -8 10 -10 17 -20 16 -22z m-59 -21
c3 -5 2 -10 -4 -10 -5 0 -13 5 -16 10 -3 6 -2 10 4 10 5 0 13 -4 16 -10z"/>
<path d="M17100 11016 c0 -2 7 -7 16 -10 8 -3 12 -2 9 4 -6 10 -25 14 -25 6z"/>
<path d="M17274 10877 c0 -50 -4 -105 -8 -122 l-7 -30 22 25 c20 23 21 32 16
108 -9 118 -23 131 -23 19z"/>
<path d="M17140 10790 c0 -5 7 -10 15 -10 8 0 15 5 15 10 0 6 -7 10 -15 10 -8
0 -15 -4 -15 -10z"/>
<path d="M13205 13694 c-81 -66 -152 -132 -85 -80 19 15 51 39 70 54 52 39
111 92 103 91 -5 0 -44 -29 -88 -65z"/>
<path d="M13040 13559 l-35 -30 38 26 c33 24 43 35 34 35 -1 0 -18 -14 -37
-31z"/>
<path d="M12570 13253 c-34 -25 -64 -52 -67 -60 -3 -7 -11 -13 -19 -13 -7 0
-25 -12 -39 -26 -25 -25 -25 -25 -3 -18 39 12 219 164 194 164 -2 0 -32 -21
-66 -47z"/>
<path d="M11782 12774 c-46 -25 -81 -48 -78 -51 6 -6 145 63 166 83 26 25 -4
14 -88 -32z"/>
<path d="M14235 12320 c-3 -5 -17 -10 -30 -10 -12 0 -26 -8 -29 -17 -6 -15 -8
-15 -16 -3 -6 8 -10 13 -11 10 0 -3 -2 -12 -4 -21 -3 -18 22 -21 29 -3 2 6 24
15 48 19 24 5 37 10 30 12 -6 3 -10 9 -6 14 3 5 3 9 0 9 -3 0 -8 -4 -11 -10z"/>
<path d="M10955 12380 c-3 -5 -2 -10 4 -10 5 0 13 5 16 10 3 6 2 10 -4 10 -5
0 -13 -4 -16 -10z"/>
<path d="M10610 12250 c-13 -9 -13 -10 0 -10 8 0 22 5 30 10 13 9 13 10 0 10
-8 0 -22 -5 -30 -10z"/>
<path d="M10568 12233 c7 -3 16 -2 19 1 4 3 -2 6 -13 5 -11 0 -14 -3 -6 -6z"/>
<path d="M10480 12208 c-19 -5 -39 -14 -45 -20 -11 -12 21 -4 70 17 36 16 24
17 -25 3z"/>
<path d="M10272 12151 c-51 -16 -96 -31 -99 -35 -9 -9 30 -7 63 3 16 5 62 19
102 31 39 12 72 24 72 26 0 10 -52 1 -138 -25z"/>
<path d="M9588 11963 c7 -3 16 -2 19 1 4 3 -2 6 -13 5 -11 0 -14 -3 -6 -6z"/>
<path d="M10840 11450 c-8 -16 -8 -20 4 -20 16 0 29 27 16 35 -5 3 -14 -4 -20
-15z"/>
<path d="M8284 11566 c-8 -22 -2 -27 16 -16 12 7 12 12 3 21 -10 10 -14 9 -19
-5z"/>
<path d="M8220 11556 c0 -8 4 -17 9 -21 6 -3 9 4 8 15 -1 23 -17 28 -17 6z"/>
<path d="M8142 11549 c2 -6 8 -10 13 -10 5 0 11 4 13 10 2 6 -4 11 -13 11 -9
0 -15 -5 -13 -11z"/>
<path d="M8320 11539 c0 -5 5 -7 10 -4 6 3 10 8 10 11 0 2 -4 4 -10 4 -5 0
-10 -5 -10 -11z"/>
<path d="M8315 11489 c-10 -15 1 -23 20 -15 9 3 13 10 10 16 -8 13 -22 13 -30
-1z"/>
<path d="M8406 11402 c-2 -4 4 -13 15 -20 16 -11 19 -9 19 8 0 19 -24 28 -34
12z"/>
<path d="M20077 11199 c7 -7 15 -10 18 -7 3 3 -2 9 -12 12 -14 6 -15 5 -6 -5z"/>
<path d="M19565 11189 c-5 -7 -4 -14 3 -17 6 -2 8 -10 5 -18 -3 -8 -1 -14 5
-14 5 0 24 -13 41 -29 34 -32 113 -73 151 -78 14 -2 43 -7 65 -12 81 -17 245
13 245 46 0 7 7 13 15 13 8 0 15 7 15 15 0 8 6 15 14 15 8 0 17 7 20 16 8 21
8 34 -1 33 -28 -5 -55 4 -72 23 -20 20 -23 21 -75 8 -53 -12 -124 -11 -347 6
-57 5 -78 3 -84 -7z"/>
<path d="M12380 11751 c0 -6 4 -13 10 -16 6 -3 7 1 4 9 -7 18 -14 21 -14 7z"/>
<path d="M12105 11550 c3 -5 8 -10 11 -10 2 0 4 5 4 10 0 6 -5 10 -11 10 -5 0
-7 -4 -4 -10z"/>
<path d="M12065 11525 c4 -11 7 -29 7 -40 -1 -16 1 -17 9 -5 8 11 9 7 4 -15
-6 -28 -5 -29 10 -14 15 15 14 19 -11 55 -15 21 -23 30 -19 19z"/>
<path d="M12525 11441 c-6 -11 9 -23 19 -14 9 9 7 23 -3 23 -6 0 -12 -4 -16
-9z"/>
<path d="M12388 11363 c-10 -2 -18 -8 -18 -13 0 -4 9 -6 20 -3 11 3 20 9 20
14 0 5 -1 8 -2 8 -2 -1 -11 -3 -20 -6z"/>
<path d="M12012 11348 c5 -15 37 -18 41 -4 1 5 -9 11 -21 13 -16 2 -22 -1 -20
-9z"/>
<path d="M12080 11315 c0 -8 5 -15 10 -15 6 0 10 7 10 15 0 8 -4 15 -10 15 -5
0 -10 -7 -10 -15z"/>
<path d="M12120 11230 c0 -5 7 -10 15 -10 8 0 15 5 15 10 0 6 -7 10 -15 10 -8
0 -15 -4 -15 -10z"/>
<path d="M13410 11030 c0 -5 5 -10 10 -10 6 0 10 5 10 10 0 6 -4 10 -10 10 -5
0 -10 -4 -10 -10z"/>
<path d="M17754 8887 c-22 -17 -69 -61 -105 -96 -78 -79 -156 -141 -175 -141
-8 0 -14 -3 -14 -7 0 -22 -169 -78 -283 -94 -104 -14 -289 -4 -382 22 -66 18
-105 18 -105 -1 0 -19 92 -101 120 -107 16 -3 35 -12 41 -19 6 -8 16 -14 21
-14 11 0 69 -24 103 -42 11 -6 70 -13 131 -14 95 -3 113 -1 118 12 3 9 13 14
21 11 7 -3 33 4 57 17 24 12 52 23 63 23 50 2 91 13 101 28 6 8 15 15 21 15 5
0 19 14 31 30 13 17 27 30 33 30 5 0 24 13 42 30 20 19 39 28 49 24 14 -4 19
3 24 35 4 22 10 38 15 35 5 -3 6 8 3 25 -5 23 -2 32 15 40 20 11 30 41 13 41
-14 0 -42 -35 -42 -52 0 -9 -8 -18 -17 -22 -10 -3 -24 -9 -30 -12 -25 -11 -12
19 24 57 22 23 46 39 60 39 13 0 27 9 34 23 6 12 24 32 40 45 18 14 29 33 29
48 0 31 -7 30 -56 -9z m-269 -286 c-3 -6 -14 -11 -23 -11 -15 1 -15 2 2 15 21
16 32 13 21 -4z"/>
<path d="M7093 8615 c-10 -27 76 -126 146 -166 130 -76 354 -110 414 -62 15
11 35 19 45 16 10 -2 33 10 57 30 l39 34 -33 5 c-22 3 -35 0 -38 -9 -3 -7 -11
-13 -19 -13 -8 0 -14 -7 -14 -15 0 -15 -12 -20 -23 -9 -3 4 0 13 8 21 17 17
20 43 5 43 -5 0 -10 -5 -10 -11 0 -20 -24 -3 -31 22 -6 23 -3 25 22 23 16 -1
29 2 29 6 0 17 -47 23 -190 24 -147 2 -181 8 -312 55 -69 25 -87 26 -95 6z"/>
<path d="M14634 8183 c-9 -14 -14 -15 -25 -6 -11 9 -19 8 -34 -4 -20 -15 -20
-15 0 -11 14 2 20 -3 20 -17 0 -15 -8 -21 -29 -23 -16 -2 -41 -11 -55 -20 -13
-9 -32 -16 -41 -14 -10 1 -23 -4 -30 -13 -14 -17 -40 -20 -40 -4 0 15 -67 3
-98 -17 -24 -16 -81 -11 -117 10 -25 15 -34 14 -62 -4 -27 -18 -28 -27 -7 -69
10 -20 33 -40 63 -55 42 -22 58 -24 143 -21 67 2 108 8 139 22 56 25 169 128
169 155 0 11 5 28 11 39 5 11 9 31 7 45 -3 22 -4 23 -14 7z"/>
<path d="M13441 21516 c14 -13 162 -96 166 -92 4 4 -151 96 -163 96 -4 0 -5
-2 -3 -4z"/>
<path d="M15343 21396 c-32 -29 -73 -76 -92 -102 -36 -52 -36 -52 84 74 43 45
76 82 72 82 -3 0 -32 -24 -64 -54z"/>
<path d="M13660 21386 c0 -2 7 -7 16 -10 8 -3 12 -2 9 4 -6 10 -25 14 -25 6z"/>
<path d="M18468 21283 c7 -3 16 -2 19 1 4 3 -2 6 -13 5 -11 0 -14 -3 -6 -6z"/>
<path d="M18550 21260 c8 -5 24 -9 35 -9 l20 0 -20 9 c-11 5 -27 9 -35 9 -13
1 -13 0 0 -9z"/>
<path d="M18611 21246 c4 -4 46 -17 95 -31 49 -13 124 -35 168 -50 43 -14 80
-24 82 -22 5 4 -97 42 -206 76 -72 22 -148 37 -139 27z"/>
<path d="M15001 20967 c-13 -21 -12 -21 5 -5 10 10 16 20 13 22 -3 3 -11 -5
-18 -17z"/>
<path d="M14915 20839 c-4 -6 -5 -12 -2 -15 2 -3 7 2 10 11 7 17 1 20 -8 4z"/>
<path d="M14758 20640 c-65 -70 -118 -131 -118 -134 0 -34 117 76 180 169 52
78 63 95 58 94 -2 0 -56 -58 -120 -129z"/>
<path d="M6474 20568 c-29 -32 -24 -31 30 10 16 13 22 22 14 22 -8 0 -27 -14
-44 -32z"/>
<path d="M19646 20476 c-34 -78 -295 -463 -530 -781 -61 -82 -129 -175 -150
-205 l-39 -55 40 39 c23 21 67 72 99 112 33 41 88 111 124 155 75 93 125 163
195 274 28 44 83 128 123 187 76 113 177 308 170 329 -2 6 -17 -18 -32 -55z"/>
<path d="M6716 20498 c19 -64 25 -73 34 -58 21 33 5 80 -28 80 -9 0 -11 -7 -6
-22z"/>
<path d="M6430 20348 c0 -26 59 -97 85 -104 14 -4 27 -5 28 -3 1 2 -24 30 -55
63 -32 32 -58 52 -58 44z"/>
<path d="M10170 19955 c21 -56 89 -164 90 -144 0 9 -90 169 -95 169 -3 0 0
-11 5 -25z"/>
<path d="M10370 19625 c0 -33 346 -593 358 -580 3 3 -38 79 -146 269 -90 158
-109 188 -162 258 -46 60 -50 64 -50 53z"/>
<path d="M9585 19576 c-89 -17 -201 -56 -260 -90 -74 -44 -152 -126 -165 -176
-18 -67 -30 -150 -30 -211 0 -167 91 -460 164 -528 14 -14 26 -32 26 -42 0
-26 -186 -114 -302 -143 l-93 -24 85 5 c77 5 95 11 198 60 141 69 172 74 241
38 66 -33 169 -131 155 -145 -10 -10 -49 -22 -268 -81 -38 -11 -93 -19 -123
-19 -46 0 -61 -6 -125 -48 -90 -59 -161 -90 -253 -106 -207 -38 -658 -132
-700 -146 -43 -14 96 -3 205 16 212 38 486 97 552 119 74 25 146 61 206 101
38 26 126 47 262 64 52 6 129 20 170 30 92 23 199 38 392 54 142 13 148 14
195 47 26 19 66 62 89 95 105 156 154 535 98 751 -34 129 -132 262 -230 308
-52 25 -269 72 -364 80 -30 2 -86 -2 -125 -9z m273 -119 c33 -14 78 -38 98
-54 88 -66 172 -261 161 -373 -11 -121 -103 -252 -217 -308 -50 -24 -65 -27
-160 -26 -90 1 -113 4 -160 26 -188 87 -296 366 -210 543 28 58 124 156 179
185 92 46 205 49 309 7z"/>
<path d="M9966 19007 c-11 -7 -29 -20 -40 -30 -25 -21 -37 -24 -146 -32 -46
-3 -87 -11 -91 -16 -3 -6 -10 -11 -15 -11 -5 0 -16 -4 -24 -9 -13 -8 -13 -11
2 -22 12 -10 14 -17 7 -24 -8 -8 -7 -13 0 -17 15 -10 14 -26 -2 -26 -19 0 -57
43 -57 63 0 9 -5 17 -11 17 -7 0 -18 8 -26 18 -11 13 -13 14 -12 2 4 -43 -22
-56 -46 -23 -11 14 -13 13 -17 -10 -3 -15 -1 -27 3 -27 5 0 9 -6 9 -13 0 -49
272 -138 335 -109 14 7 33 12 42 12 23 0 109 72 150 126 24 31 37 61 40 89 5
38 3 43 -18 48 -35 10 -61 7 -83 -6z"/>
<path d="M19819 19482 c-147 -49 -244 -137 -327 -299 -81 -158 -97 -245 -67
-367 22 -87 106 -252 160 -313 70 -79 181 -148 305 -187 156 -50 163 -50 193
-16 14 16 80 56 146 90 232 118 316 252 290 462 -41 332 -160 517 -399 618
-76 32 -222 38 -301 12z m168 -193 c161 -60 266 -180 295 -338 17 -93 -6 -155
-92 -242 -53 -54 -76 -69 -125 -84 -79 -25 -178 -25 -230 0 -61 29 -145 123
-189 212 -35 69 -40 86 -39 145 1 82 32 156 93 222 94 102 176 126 287 85z"/>
<path d="M10758 19450 c70 -126 114 -200 182 -310 43 -69 103 -167 134 -219
65 -108 86 -135 36 -46 -18 33 -51 94 -73 135 -21 41 -63 113 -92 160 -29 47
-73 121 -99 165 -26 44 -61 96 -78 115 l-30 35 20 -35z"/>
<path d="M12227 19064 c-3 -27 -9 -57 -12 -66 -5 -13 2 -18 40 -23 25 -4 49
-4 53 -1 6 7 -29 77 -58 116 -17 22 -17 22 -23 -26z"/>
<path d="M10830 18865 c0 -23 98 -170 107 -161 6 6 -83 152 -98 161 -5 4 -9 3
-9 0z"/>
<path d="M18420 18850 c0 -5 5 -10 11 -10 5 0 7 5 4 10 -3 6 -8 10 -11 10 -2
0 -4 -4 -4 -10z"/>
<path d="M11150 18790 c6 -11 13 -20 16 -20 2 0 0 9 -6 20 -6 11 -13 20 -16
20 -2 0 0 -9 6 -20z"/>
<path d="M10515 18436 c-33 -13 -109 -47 -170 -76 -60 -29 -139 -63 -175 -77
-164 -62 -379 -200 -820 -526 -118 -87 -255 -192 -305 -232 -49 -40 -119 -96
-155 -125 -60 -47 -105 -87 -338 -303 -47 -42 -95 -80 -108 -83 -17 -4 -24
-13 -24 -30 0 -13 3 -24 6 -24 14 0 105 80 244 215 177 172 298 275 500 428
85 64 214 162 285 217 72 55 171 124 220 154 266 158 614 345 785 422 69 31
127 58 129 60 9 9 -17 1 -74 -20z"/>
<path d="M8888 18353 c7 -3 16 -2 19 1 4 3 -2 6 -13 5 -11 0 -14 -3 -6 -6z"/>
<path d="M5331 18254 c0 -11 3 -14 6 -6 3 7 2 16 -1 19 -3 4 -6 -2 -5 -13z"/>
<path d="M5414 17904 c-19 -50 -76 -122 -101 -127 -33 -6 -73 8 -90 33 -12 18
-14 17 -41 -9 -18 -18 -43 -30 -72 -35 -25 -4 -56 -13 -70 -21 -25 -14 -25
-14 10 -9 19 3 43 7 53 9 38 7 116 -25 141 -58 50 -65 86 -158 86 -220 0 -74
-17 -113 -68 -159 -56 -50 -94 -69 -158 -75 -47 -5 -59 -2 -93 21 -74 52 -128
136 -138 216 -9 74 11 130 70 196 28 31 42 52 31 46 -27 -14 -89 -83 -107
-119 -29 -56 -41 -147 -27 -215 24 -123 55 -167 220 -316 42 -38 44 -42 42
-90 -2 -56 25 -102 60 -102 19 0 20 4 13 69 l-7 69 64 30 c34 16 90 37 123 47
133 37 172 94 162 233 -8 111 -33 222 -78 339 -44 115 -45 125 -24 203 14 52
13 83 -1 44z"/>
<path d="M19655 17651 c9 -18 41 -73 72 -124 101 -167 129 -257 99 -316 -14
-26 -100 -102 -187 -164 l-24 -17 27 10 c15 5 35 13 45 19 10 5 44 21 75 36
73 33 118 83 118 131 0 55 -190 424 -231 450 -6 3 -3 -8 6 -25z"/>
<path d="M7724 17312 c35 -68 129 -148 236 -202 63 -32 44 -12 -116 120 -101
83 -131 104 -120 82z"/>
<path d="M19580 17010 c-9 -6 -10 -10 -3 -10 6 0 15 5 18 10 8 12 4 12 -15 0z"/>
<path d="M8165 16946 c28 -25 55 -46 60 -45 12 0 -62 66 -90 80 -11 5 3 -10
30 -35z"/>
<path d="M19410 16919 c-74 -39 -162 -88 -195 -109 -33 -21 -85 -52 -115 -69
-112 -63 -32 -28 139 61 166 86 311 171 311 183 0 7 8 11 -140 -66z"/>
<path d="M8360 16910 c-21 -17 -47 -30 -64 -30 -20 0 -27 -4 -23 -14 7 -17 -9
-38 -85 -116 -29 -30 -119 -134 -199 -230 -81 -96 -165 -195 -188 -220 -60
-65 -172 -214 -221 -295 -23 -38 -68 -108 -99 -155 -32 -47 -82 -130 -111
-185 -94 -177 -167 -275 -204 -275 -43 0 -48 -16 -8 -28 22 -7 46 -12 53 -12
8 0 46 57 84 128 39 70 129 215 200 323 72 107 154 232 184 277 61 93 193 260
320 406 47 54 114 133 149 175 35 42 98 112 140 156 122 127 141 153 72 95z"/>
<path d="M7090 16862 c-97 -41 -123 -57 -174 -107 -90 -91 -134 -235 -122
-402 3 -46 13 -96 20 -111 15 -29 70 -82 153 -150 62 -51 99 -54 219 -19 160
46 282 139 336 254 26 55 30 73 29 156 0 115 -21 179 -89 262 -38 48 -64 69
-130 103 -101 51 -146 54 -242 14z m185 -69 c102 -34 211 -181 222 -300 17
-198 -217 -385 -410 -329 -63 18 -144 85 -182 150 -32 56 -58 161 -53 217 8
85 83 200 163 249 67 42 160 46 260 13z"/>
<path d="M18850 16644 c-102 -37 -160 -62 -160 -69 0 -6 169 56 230 83 69 32
35 25 -70 -14z"/>
<path d="M16866 16482 c-5 -5 28 -69 61 -117 12 -18 13 -17 7 12 -4 22 -1 41
10 57 9 14 12 27 8 29 -16 10 -81 25 -86 19z"/>
<path d="M18960 16114 c-82 -13 -237 -51 -213 -53 6 -1 78 10 159 24 81 14
149 25 151 25 2 0 3 5 3 10 0 6 -3 10 -7 9 -5 -1 -46 -7 -93 -15z"/>
<path d="M17658 15873 c7 -3 16 -2 19 1 4 3 -2 6 -13 5 -11 0 -14 -3 -6 -6z"/>
<path d="M18994 15387 c-150 -114 -209 -165 -201 -173 3 -3 54 32 114 79 105
83 223 186 213 186 -3 0 -59 -41 -126 -92z"/>
<path d="M7088 15383 c7 -3 16 -2 19 1 4 3 -2 6 -13 5 -11 0 -14 -3 -6 -6z"/>
<path d="M7137 15169 c-9 -6 -17 -18 -17 -27 0 -9 -8 -29 -18 -43 -9 -14 -36
-54 -59 -88 -58 -87 -197 -446 -268 -693 -99 -342 -128 -794 -74 -1148 18
-119 61 -341 66 -337 2 3 -3 47 -12 98 -24 136 -45 386 -45 529 0 265 51 633
125 907 72 265 235 673 309 775 22 31 20 41 -7 27z"/>
<path d="M6121 14849 c-56 -11 -120 -49 -149 -88 -41 -57 -74 -159 -79 -251
-6 -100 10 -144 78 -210 41 -40 245 -150 277 -150 25 1 210 143 242 187 36 51
50 95 50 162 0 116 -57 254 -127 308 -60 46 -182 64 -292 42z m207 -51 c81
-38 172 -181 172 -272 0 -95 -91 -240 -174 -280 -70 -33 -182 -10 -292 59 -71
46 -93 81 -101 158 -13 142 49 293 134 330 94 41 181 42 261 5z"/>
<path d="M20560 14682 c0 -4 16 -24 36 -43 95 -91 103 -218 19 -317 -15 -18
-26 -35 -24 -37 12 -12 89 37 104 66 37 70 8 199 -61 282 -27 33 -74 64 -74
49z"/>
<path d="M5480 14381 c0 -24 134 -371 144 -371 7 0 -34 123 -73 215 -21 49
-44 107 -50 128 -12 35 -21 48 -21 28z"/>
<path d="M4623 14343 c9 -2 23 -2 30 0 6 3 -1 5 -18 5 -16 0 -22 -2 -12 -5z"/>
<path d="M4485 14268 c-43 -51 -65 -98 -65 -142 1 -40 31 -105 60 -131 20 -17
19 -14 -5 18 -52 70 -42 195 20 247 17 14 39 50 31 50 -2 0 -21 -19 -41 -42z"/>
<path d="M4780 14225 c0 -4 7 -35 16 -69 13 -50 14 -70 5 -112 -24 -105 -135
-164 -224 -117 -30 15 -31 15 -18 0 7 -9 28 -26 47 -37 30 -19 37 -20 75 -9
43 13 125 86 160 144 28 45 24 94 -12 148 -30 45 -49 65 -49 52z"/>
<path d="M6176 14016 c-58 -59 -97 -122 -127 -206 -35 -96 -79 -278 -89 -368
-6 -57 -15 -91 -25 -98 -24 -18 -28 -5 96 -274 31 -68 55 -138 68 -200 24
-122 38 -169 57 -200 8 -14 13 -18 10 -9 -2 9 -16 70 -30 135 -15 66 -38 167
-53 225 -26 102 -26 108 -11 148 15 36 10 58 -7 31 -13 -20 -46 -9 -65 22 -46
76 -33 247 36 460 67 208 108 277 196 334 25 16 35 29 32 39 -11 27 -35 16
-88 -39z"/>
<path d="M6247 13780 c-20 -92 -51 -216 -68 -275 -57 -199 -20 -123 76 156 35
100 51 215 38 261 -6 22 -15 -6 -46 -142z"/>
<path d="M5671 13898 c-2 -15 131 -329 136 -324 8 8 -45 146 -93 243 -23 49
-43 85 -43 81z"/>
<path d="M20055 13864 c-90 -23 -183 -88 -249 -176 -24 -31 -65 -101 -92 -155
-48 -96 -49 -100 -53 -207 -6 -190 29 -289 144 -401 129 -127 261 -216 345
-234 143 -31 374 99 458 256 52 100 65 162 59 288 -15 325 -119 517 -326 601
-53 22 -85 27 -166 30 -55 2 -109 1 -120 -2z m201 -211 c144 -82 197 -173 198
-338 1 -102 -16 -146 -79 -210 -63 -62 -115 -80 -235 -79 -122 0 -172 17 -234
79 -45 44 -93 140 -102 202 -12 83 48 232 130 321 59 65 99 83 172 79 52 -2
74 -10 150 -54z"/>
<path d="M20339 13238 c-22 -22 -49 -29 -55 -15 -3 8 -20 11 -49 9 -34 -3 -45
-8 -45 -21 0 -9 -5 -22 -12 -29 -10 -10 -7 -16 12 -30 39 -27 58 -32 70 -17 7
8 9 19 5 25 -3 5 -1 10 4 10 6 0 11 -6 11 -14 0 -21 27 -27 42 -8 11 13 11 14
-1 7 -10 -5 -12 -4 -7 3 4 7 14 12 22 12 17 0 44 23 44 37 0 5 -6 17 -13 27
-12 16 -15 16 -28 4z m-109 -32 c0 -3 -4 -8 -10 -11 -5 -3 -10 -1 -10 4 0 6 5
11 10 11 6 0 10 -2 10 -4z m85 -24 c-3 -3 -11 0 -18 7 -9 10 -8 11 6 5 10 -3
15 -9 12 -12z"/>
<path d="M20151 13174 c0 -11 3 -14 6 -6 3 7 2 16 -1 19 -3 4 -6 -2 -5 -13z"/>
<path d="M20120 13169 c0 -5 5 -7 10 -4 6 3 10 8 10 11 0 2 -4 4 -10 4 -5 0
-10 -5 -10 -11z"/>
<path d="M20175 13130 c-3 -5 1 -10 10 -10 9 0 13 5 10 10 -3 6 -8 10 -10 10
-2 0 -7 -4 -10 -10z"/>
<path d="M4643 13385 c-111 -54 -138 -73 -181 -121 -30 -33 -63 -85 -79 -123
-24 -59 -27 -78 -28 -186 0 -114 1 -123 29 -175 44 -82 321 -355 405 -399 58
-30 67 -32 100 -22 41 12 185 97 244 143 50 40 89 99 117 176 21 56 22 75 18
180 -10 210 -90 392 -208 473 -64 44 -231 119 -264 119 -12 0 -81 -29 -153
-65z m282 -111 c50 -23 153 -126 191 -191 42 -71 40 -146 -6 -233 -44 -81
-123 -163 -174 -180 -146 -48 -359 89 -396 255 -31 140 85 331 224 366 46 12
116 5 161 -17z"/>
<path d="M6771 12804 c0 -11 3 -14 6 -6 3 7 2 16 -1 19 -3 4 -6 -2 -5 -13z"/>
<path d="M6782 12750 c0 -14 2 -19 5 -12 2 6 2 18 0 25 -3 6 -5 1 -5 -13z"/>
<path d="M6831 12570 c-1 -9 12 -54 28 -100 38 -110 39 -92 2 25 -16 50 -30
83 -30 75z"/>
<path d="M5641 12314 c0 -11 3 -14 6 -6 3 7 2 16 -1 19 -3 4 -6 -2 -5 -13z"/>
<path d="M5842 12228 c-11 -29 -34 -100 -52 -158 -18 -58 -53 -168 -78 -245
-89 -275 -98 -285 -218 -235 -54 23 -74 45 -74 81 0 16 34 119 75 230 41 110
75 203 75 207 -1 14 -43 -76 -92 -198 -84 -210 -117 -260 -173 -260 -29 0
-212 -63 -275 -95 -180 -91 -312 -236 -373 -413 -26 -77 -30 -101 -30 -202 0
-101 3 -126 28 -199 31 -92 110 -224 195 -326 141 -171 336 -257 511 -227 40
7 102 25 138 40 83 35 212 122 241 162 62 88 101 260 100 445 -1 133 -14 230
-53 380 -35 135 -60 341 -55 440 5 75 33 212 78 370 25 89 60 248 55 253 -1 2
-12 -21 -23 -50z m-372 -855 c67 -37 115 -97 177 -223 45 -90 47 -99 48 -180
0 -108 -26 -181 -98 -269 -42 -52 -69 -73 -142 -112 -88 -48 -92 -49 -178 -49
-76 0 -99 4 -162 31 -172 71 -267 221 -267 419 0 164 78 301 212 374 66 36
121 45 250 42 97 -2 109 -4 160 -33z"/>
<path d="M5528 10845 c-59 -31 -174 -62 -257 -70 -89 -8 -163 -33 -159 -54 5
-23 103 -41 165 -30 70 13 216 59 228 73 6 6 17 12 25 14 8 2 17 7 20 11 3 3
17 14 33 24 30 19 35 42 11 51 -19 7 -10 10 -66 -19z"/>
<path d="M18770 11769 c46 -38 220 -113 220 -95 0 5 -228 116 -239 116 -3 0 5
-10 19 -21z"/>
<path d="M18612 10750 c-73 -26 -111 -51 -170 -114 -103 -109 -192 -272 -218
-400 -14 -69 -14 -83 0 -153 23 -111 56 -170 155 -267 101 -101 160 -145 258
-192 119 -58 234 -47 360 35 80 52 158 135 193 205 40 78 40 158 1 343 -49
238 -136 405 -252 484 -112 76 -224 96 -327 59z m108 -171 c108 -23 213 -124
246 -237 22 -76 16 -222 -11 -277 -33 -68 -83 -109 -165 -135 -65 -21 -79 -22
-128 -12 -119 25 -222 105 -270 210 -21 48 -24 64 -20 146 3 80 8 100 39 160
66 131 163 176 309 145z"/>
<path d="M18850 10105 c0 -8 -7 -15 -15 -15 -8 0 -15 -8 -16 -17 0 -13 -2 -14
-6 -4 -4 10 -7 11 -13 1 -6 -10 -11 -8 -20 7 -12 19 -13 19 -61 -4 -27 -13
-49 -30 -49 -38 0 -17 -17 -20 -22 -4 -2 6 -13 3 -28 -9 -24 -20 -24 -21 -5
-28 11 -4 27 -15 35 -25 18 -19 106 -29 131 -14 7 5 23 9 34 7 24 -2 63 44 81
96 14 41 7 64 -11 39 -7 -9 -15 -14 -18 -10 -4 3 -2 12 4 20 9 10 8 13 -5 13
-9 0 -16 -7 -16 -15z m-92 -50 c-6 -14 -13 -23 -16 -21 -7 7 9 46 18 46 5 0 4
-11 -2 -25z"/>
<path d="M5945 10105 c-33 -44 -45 -84 -47 -155 -1 -116 48 -201 167 -281 116
-79 159 -84 230 -24 l30 25 -30 -7 c-102 -26 -199 4 -287 89 -96 93 -113 207
-49 329 34 66 28 78 -14 24z"/>
<path d="M6460 10075 c1 -6 7 -21 16 -35 l15 -25 -7 25 c-7 26 -24 52 -24 35z"/>
<path d="M8600 9898 c3 -3 40 -33 83 -67 78 -62 86 -76 66 -113 -10 -18 -5
-17 30 8 22 16 41 36 41 44 0 9 -43 38 -103 70 -104 56 -126 67 -117 58z"/>
<path d="M8635 9649 c-40 -21 -128 -99 -121 -107 3 -2 44 26 92 62 90 68 99
82 29 45z"/>
<path d="M9026 9655 c-22 -7 -49 -24 -60 -36 l-21 -21 22 11 c38 19 58 12 108
-40 27 -29 74 -70 104 -92 30 -22 89 -68 132 -102 127 -103 229 -157 619 -325
178 -77 631 -222 646 -207 2 2 -62 25 -144 51 -238 77 -564 202 -685 263 -295
148 -473 260 -563 354 -69 72 -88 103 -81 129 3 11 -2 21 -10 24 -19 8 -21 7
-67 -9z"/>
<path d="M10688 8803 c7 -3 16 -2 19 1 4 3 -2 6 -13 5 -11 0 -14 -3 -6 -6z"/>
<path d="M11880 8636 c-38 -14 -45 -16 -60 -16 -5 0 -10 -4 -10 -10 0 -6 9 -6
23 -1 12 5 89 12 171 16 239 12 276 22 81 23 -115 0 -181 -4 -205 -12z"/>
<path d="M13529 8415 c-3 -2 -45 -11 -94 -20 -73 -12 -114 -27 -220 -80 -71
-36 -122 -65 -114 -65 20 0 217 51 393 103 145 43 148 44 116 55 -34 12 -73
16 -81 7z"/>
<path d="M16016 7899 c8 -39 -13 -105 -46 -143 -29 -32 -106 -70 -160 -79 -14
-2 -4 -5 21 -6 65 -2 130 24 173 68 47 49 56 93 27 147 -16 29 -20 33 -15 13z"/>
<path d="M15605 7810 c34 -64 93 -113 150 -124 27 -6 27 -5 -8 13 -21 10 -64
43 -94 72 -31 30 -52 47 -48 39z"/>
<path d="M9358 7685 c4 -16 7 -62 7 -102 0 -86 -15 -112 -94 -160 -95 -57
-205 -57 -269 2 -43 39 -101 131 -112 178 -7 29 -8 27 -9 -19 -2 -100 65 -188
223 -287 l76 -49 44 26 c64 37 140 126 156 179 16 58 9 181 -13 227 -15 33
-16 33 -9 5z"/>
<path d="M18360 6831 l-35 -7 45 -7 c87 -13 216 -18 200 -9 -14 9 -149 34
-167 31 -4 -1 -24 -5 -43 -8z"/>
<path d="M18665 6763 c13 -32 18 -1159 7 -1513 -8 -240 -8 -413 -1 -570 17
-360 9 -388 -112 -408 -123 -21 -232 -25 -252 -10 -23 17 -45 106 -53 218 -4
47 -10 91 -14 99 -5 10 -24 -10 -63 -70 -68 -103 -103 -137 -187 -182 -109
-59 -191 -82 -300 -81 -112 0 -186 18 -315 79 -193 90 -290 183 -384 368 -95
186 -136 349 -135 527 1 119 20 217 60 315 9 22 -39 -31 -75 -82 -41 -60 -64
-44 -116 82 -45 110 -162 281 -241 353 -83 77 -194 147 -280 178 -144 53 -317
74 -449 55 -39 -5 -17 -8 100 -13 176 -6 275 -31 420 -103 115 -57 195 -122
279 -227 122 -151 199 -351 212 -549 19 -274 -99 -558 -315 -762 -132 -124
-324 -204 -548 -227 -141 -15 -320 24 -499 110 -83 39 -117 62 -184 126 -101
97 -168 185 -219 289 -140 288 -144 608 -11 828 17 29 68 100 113 158 74 97
77 101 31 59 -148 -136 -233 -277 -269 -450 -14 -68 -13 -86 15 -355 12 -114
45 -231 96 -343 20 -42 53 -125 74 -183 48 -134 62 -161 113 -216 96 -105 380
-267 547 -313 100 -27 258 -27 362 -1 167 43 365 170 493 317 36 41 71 87 80
104 26 50 62 180 85 305 23 126 59 225 83 225 48 0 126 -185 127 -303 1 -82
39 -161 125 -260 197 -226 288 -295 475 -358 91 -31 103 -33 280 -37 135 -2
213 1 290 13 58 8 155 20 215 26 192 17 235 26 320 67 83 40 130 80 181 154
37 53 44 151 19 259 -19 82 -22 186 -7 201 6 6 16 0 29 -19 23 -32 33 -60 68
-196 32 -123 51 -162 117 -231 45 -47 79 -68 223 -139 231 -115 302 -138 440
-144 124 -6 192 6 322 57 93 36 300 149 364 199 80 63 129 150 129 231 0 40
-43 144 -85 206 -20 30 -25 48 -23 83 l3 46 85 42 c140 69 200 143 200 245 0
19 -9 68 -19 109 -26 100 -148 398 -200 487 -90 154 -228 296 -374 385 -95 58
-261 108 -380 114 -94 5 -207 -9 -207 -25 0 -4 48 -6 107 -4 127 5 218 -9 327
-51 227 -86 406 -254 496 -465 52 -122 60 -171 60 -355 0 -92 -4 -177 -10
-187 -9 -17 -28 -18 -317 -18 -170 0 -369 -6 -443 -12 -74 -6 -220 -10 -325
-8 l-190 3 -3 -23 c-2 -12 4 -47 13 -78 23 -79 83 -137 205 -196 146 -72 255
-83 414 -42 76 20 118 42 186 98 30 25 63 46 72 46 10 0 46 -25 80 -55 35 -31
92 -75 128 -99 36 -24 74 -53 84 -65 19 -21 19 -22 -3 -43 -57 -52 -241 -183
-300 -212 -202 -101 -417 -133 -587 -87 -169 46 -324 119 -410 192 -121 105
-240 281 -288 429 -37 113 -46 170 -46 288 0 160 22 269 75 378 48 99 150 258
183 288 12 11 22 23 22 28 0 17 -65 -26 -122 -80 -42 -40 -62 -52 -69 -45 -8
8 -6 57 5 169 31 310 12 579 -50 709 -35 75 -186 215 -159 148z"/>
<path d="M18183 6693 c-10 -34 -6 -160 6 -228 7 -40 9 -20 10 103 0 83 -1 152
-4 152 -2 0 -8 -12 -12 -27z"/>
<path d="M6408 6593 c7 -3 16 -2 19 1 4 3 -2 6 -13 5 -11 0 -14 -3 -6 -6z"/>
<path d="M13013 6583 c9 -2 23 -2 30 0 6 3 -1 5 -18 5 -16 0 -22 -2 -12 -5z"/>
<path d="M6534 6573 c10 -10 149 -64 153 -59 6 6 -84 47 -123 56 -20 5 -33 6
-30 3z"/>
<path d="M14730 5728 c0 -453 -4 -890 -9 -973 -5 -82 -7 -213 -4 -290 7 -183
7 -184 -130 -196 -54 -4 -132 -4 -174 1 -77 8 -78 9 -128 62 -27 30 -102 128
-165 218 -63 90 -142 198 -176 239 -76 95 -178 234 -277 376 -42 61 -90 126
-107 145 l-31 35 38 -75 c22 -41 81 -147 133 -235 51 -88 128 -221 170 -295
42 -74 97 -167 122 -206 25 -39 54 -86 63 -105 77 -151 234 -329 330 -374 85
-39 175 -45 236 -15 68 34 124 84 141 127 25 60 38 207 26 301 -5 46 -7 183
-4 314 4 128 10 460 14 738 5 301 14 546 21 607 12 88 11 118 -3 224 -18 128
-33 171 -66 189 -20 11 -20 7 -20 -812z"/>
<path d="M13236 6519 c77 -100 236 -314 258 -349 40 -61 214 -288 228 -296 14
-9 12 -5 -89 138 -46 66 -116 159 -154 207 -39 47 -83 109 -99 136 -36 63
-120 167 -140 173 -12 4 -13 2 -4 -9z"/>
<path d="M12819 6473 c-5 -15 -12 -133 -13 -263 -4 -231 -17 -388 -58 -680
-19 -140 -33 -192 -52 -194 -11 -1 -8 -6 -105 194 -82 171 -114 215 -214 291
l-42 32 51 -54 c75 -79 117 -139 163 -232 129 -260 116 -552 -34 -807 -129
-217 -251 -342 -409 -421 -129 -63 -232 -90 -371 -96 -96 -5 -125 -2 -225 22
-63 15 -119 31 -125 34 -5 4 -44 20 -85 36 -114 44 -187 91 -271 174 -111 112
-202 265 -258 440 -63 191 -64 300 -6 477 55 168 121 286 222 395 32 35 48 57
35 50 -31 -17 -177 -166 -214 -218 -42 -61 -58 -57 -58 15 0 32 -3 62 -6 65
-4 4 -22 -7 -41 -23 -18 -16 -73 -57 -121 -90 -48 -33 -102 -72 -120 -87 -23
-18 -38 -24 -46 -17 -7 5 -40 30 -72 57 -147 118 -303 154 -473 107 -155 -43
-268 -153 -326 -318 -20 -57 -25 -91 -25 -168 0 -84 4 -104 30 -168 37 -89 70
-137 39 -56 -40 101 -43 128 -30 209 30 178 77 240 238 318 125 59 175 65 260
29 76 -32 176 -89 228 -131 57 -45 94 -63 152 -71 55 -7 71 -1 162 60 55 37
81 45 81 24 -1 -7 -7 -40 -15 -73 -31 -126 -12 -258 65 -465 17 -47 47 -129
66 -184 27 -79 47 -116 102 -190 38 -50 86 -116 106 -147 76 -115 332 -286
557 -371 80 -31 91 -32 229 -32 177 -1 208 9 420 126 318 178 310 169 310 334
0 105 3 121 34 201 34 90 86 256 117 376 18 71 25 85 35 74 4 -4 8 -163 9
-354 1 -233 6 -362 13 -390 23 -77 163 -241 237 -274 49 -23 94 -24 143 -3 57
24 85 57 135 162 42 88 48 107 57 207 22 239 2 842 -32 995 -11 47 -14 -23
-18 -490 -4 -484 -7 -548 -22 -575 -28 -52 -99 -75 -232 -76 -69 -1 -91 3
-124 21 -72 41 -70 28 -70 475 0 220 -3 492 -7 605 -5 161 -2 270 15 510 24
345 36 630 26 630 -4 0 -11 -12 -17 -27z"/>
<path d="M6784 6457 c74 -47 265 -235 288 -284 13 -28 3 -41 -72 -97 -30 -22
-92 -75 -138 -118 -45 -43 -87 -78 -92 -78 -5 0 -38 24 -72 53 -138 117 -220
159 -364 188 -115 23 -189 24 -282 4 -156 -32 -259 -93 -351 -207 -148 -182
-217 -477 -158 -668 l14 -45 12 30 c7 17 19 64 27 105 39 202 126 345 251 408
131 67 291 90 500 74 108 -9 128 -13 170 -39 85 -52 322 -163 369 -173 33 -8
69 -7 125 1 43 7 82 9 86 6 4 -4 -1 -40 -10 -80 -52 -223 -59 -449 -19 -612
11 -44 25 -113 32 -153 11 -66 18 -82 74 -155 33 -45 78 -107 98 -137 59 -87
324 -351 394 -393 267 -160 550 -171 826 -32 144 72 252 145 357 240 148 134
157 159 120 332 -30 140 -30 180 -1 221 30 41 71 44 101 6 12 -15 21 -31 21
-37 0 -6 25 -75 56 -153 61 -157 95 -210 243 -389 119 -143 193 -205 316 -266
156 -77 281 -95 459 -64 165 29 309 100 478 236 141 115 141 115 134 224 -8
121 -20 193 -34 207 -10 10 -38 -13 -125 -98 -142 -141 -185 -170 -322 -218
-182 -65 -336 -74 -510 -32 -55 14 -113 32 -130 40 -16 9 -34 16 -38 16 -4 0
-45 21 -90 47 -84 49 -193 150 -268 249 -45 59 -114 204 -155 324 -28 81 -29
93 -28 250 1 136 4 179 22 244 12 44 20 81 18 83 -2 3 -22 -18 -43 -47 -26
-36 -44 -50 -58 -48 -23 4 -59 63 -80 135 -9 29 -25 70 -37 90 -33 56 -141
193 -185 234 -45 44 -158 121 -222 153 -156 78 -404 121 -566 97 -37 -6 -13
-8 91 -9 190 -2 278 -23 436 -102 205 -104 332 -229 446 -440 50 -94 68 -153
82 -279 20 -171 -16 -346 -110 -534 -90 -180 -249 -346 -403 -422 -175 -85
-369 -126 -509 -107 -149 21 -374 112 -481 193 -67 51 -189 179 -231 243 -93
141 -155 341 -163 526 -5 109 -3 136 16 205 40 146 113 280 237 435 34 41 13
28 -63 -42 -28 -26 -57 -48 -62 -48 -13 0 -13 -5 -15 145 -1 114 -3 123 -33
180 -46 89 -224 289 -308 347 -38 26 -74 47 -80 47 -5 0 -1 -6 9 -12z"/>
<path d="M14274 6160 c0 -135 2 -190 3 -122 2 67 2 177 0 245 -1 67 -3 12 -3
-123z"/>
<path d="M5249 6168 c-37 -52 -140 -254 -163 -321 -62 -185 -90 -344 -90 -517
1 -124 6 -168 34 -305 70 -341 163 -529 348 -707 202 -194 496 -345 733 -378
162 -23 370 12 534 89 136 64 409 211 433 234 65 60 81 163 44 269 -12 32 -24
78 -27 103 -4 25 -10 45 -12 45 -3 0 -53 -46 -112 -102 -58 -56 -133 -121
-166 -146 -131 -97 -326 -168 -527 -193 -152 -18 -331 13 -538 93 -148 58
-227 108 -346 222 -154 145 -222 249 -282 432 -57 174 -67 234 -67 424 0 158
3 185 28 285 29 117 57 203 88 272 11 24 19 45 19 49 0 5 70 128 98 172 25 39
3 24 -29 -20z"/>
<path d="M9931 6141 c-10 -6 10 -9 63 -10 210 -2 352 -53 534 -191 140 -107
138 -86 -3 28 -86 70 -203 132 -300 158 -70 19 -273 30 -294 15z"/>
<path d="M11555 6130 c-121 -18 -266 -68 -340 -117 -60 -40 -54 -42 18 -7 96
47 193 82 270 98 167 35 357 10 532 -70 134 -61 139 -62 72 -19 -84 54 -191
92 -310 109 -111 17 -161 18 -242 6z"/>
<path d="M17860 6074 c91 -32 207 -92 273 -142 72 -55 91 -63 83 -34 -2 9 -7
43 -11 75 -6 55 -8 58 -24 43 -25 -23 -64 -20 -124 10 -62 32 -170 64 -212 64
-27 -1 -26 -2 15 -16z"/>
<path d="M17365 6030 c-44 -22 -93 -52 -110 -66 l-30 -26 45 26 c25 15 78 43
118 63 67 33 83 43 65 43 -5 0 -44 -18 -88 -40z"/>
<path d="M15423 6020 c-68 -32 -193 -113 -193 -126 0 -2 26 13 58 34 31 20 93
55 137 77 93 46 90 44 84 49 -2 3 -41 -13 -86 -34z"/>
<path d="M11125 5950 c-3 -6 1 -7 9 -4 18 7 21 14 7 14 -6 0 -13 -4 -16 -10z"/>
<path d="M17172 5904 c-23 -20 -47 -45 -54 -57 -6 -12 14 2 45 32 32 30 57 56
57 58 0 7 -9 1 -48 -33z"/>
<path d="M14274 5690 c0 -69 1 -97 3 -62 2 34 2 90 0 125 -2 34 -3 6 -3 -63z"/>
<path d="M13796 5780 c55 -79 189 -251 206 -266 21 -19 21 -19 7 1 -55 80
-191 254 -206 266 -16 12 -17 12 -7 -1z"/>
<path d="M19580 5703 c-42 -7 -128 -41 -167 -66 -88 -56 -183 -191 -183 -259
l0 -28 243 6 c181 5 288 2 426 -10 102 -9 186 -14 188 -12 10 9 -21 91 -54
149 -44 75 -115 147 -173 177 -74 38 -199 57 -280 43z"/>
<path d="M7921 5684 c-176 -38 -300 -145 -367 -316 -46 -118 -41 -229 16 -353
29 -64 88 -150 97 -142 3 3 -16 57 -42 120 -56 141 -61 170 -42 238 19 64 89
168 137 205 89 66 257 127 350 127 58 0 216 -47 301 -89 69 -34 127 -134 143
-246 7 -50 26 -66 26 -24 0 43 -30 156 -55 208 -68 140 -182 233 -336 273 -69
18 -143 18 -228 -1z"/>
<path d="M13241 5663 c1 -21 4 -63 8 -93 6 -48 7 -51 14 -27 10 36 31 34 95
-9 29 -20 55 -35 57 -32 7 7 -66 113 -110 159 -47 50 -65 51 -64 2z"/>
<path d="M11566 5674 c-146 -35 -264 -131 -332 -269 -59 -121 -58 -300 1 -423
21 -44 45 -74 45 -57 0 3 -12 33 -26 68 -63 154 -31 356 75 463 51 51 196 128
285 150 87 22 162 10 292 -47 108 -47 158 -87 214 -172 44 -65 45 -49 2 43
-67 145 -264 261 -437 259 -33 0 -86 -7 -119 -15z"/>
<path d="M15726 5675 c-78 -20 -162 -66 -230 -126 -74 -67 -132 -180 -148
-295 -15 -106 -3 -141 22 -62 34 109 106 243 152 283 105 90 252 149 359 143
94 -5 257 -86 345 -173 77 -76 95 -128 98 -281 1 -69 4 -94 9 -76 12 42 8 162
-7 212 -53 170 -153 288 -299 355 -73 34 -211 43 -301 20z"/>
<path d="M17649 5666 c-147 -57 -254 -159 -310 -297 -32 -78 -32 -248 -1 -333
20 -56 82 -169 89 -163 1 2 -14 44 -34 93 -49 116 -57 235 -24 342 54 178 160
247 381 247 108 0 119 -2 180 -31 138 -66 235 -162 261 -258 13 -46 6 -235 -9
-276 -5 -14 -12 -38 -16 -55 l-6 -30 17 30 c50 90 69 300 37 420 -31 120 -112
220 -227 281 -70 37 -76 38 -187 41 -80 2 -126 -1 -151 -11z"/>
<path d="M14151 5298 c51 -74 115 -148 128 -148 10 0 12 8 7 31 -3 17 -6 59
-7 93 -1 60 -1 61 -11 23 -15 -55 -33 -56 -82 -8 -50 49 -66 53 -35 9z"/>
<path d="M15370 5042 c0 -16 46 -108 72 -145 37 -52 31 -18 -12 60 -44 83 -60
105 -60 85z"/>
<path d="M16311 5034 c0 -11 3 -14 6 -6 3 7 2 16 -1 19 -3 4 -6 -2 -5 -13z"/>
<path d="M6790 4942 c0 -10 67 -74 135 -128 95 -76 101 -70 18 18 -79 84 -153
137 -153 110z"/>
<path d="M10463 4873 c-26 -9 -12 -41 34 -74 73 -53 81 -57 60 -28 -9 13 -26
40 -37 60 -20 38 -36 49 -57 42z"/>
</g>
</svg>
